<mxfile host="app.diagrams.net" modified="2021-03-07T07:51:20.236Z" agent="5.0 (Windows)" etag="PYweDLfey0RVMlfCGgf0" version="14.4.4" type="github">
  <diagram id="tqAzluY1eWFzxqnUABzI" name="第 1 页">
    <mxGraphModel dx="1408" dy="749" grid="1" gridSize="10" guides="1" tooltips="1" connect="1" arrows="1" fold="1" page="1" pageScale="1" pageWidth="827" pageHeight="1169" math="0" shadow="0">
      <root>
        <mxCell id="0" />
        <mxCell id="1" parent="0" />
        <mxCell id="0sf18ZpPYGEBluALxmxZ-1" value="&lt;div&gt;有用过线程池吗？&lt;/div&gt;&lt;div&gt;1.为什么用线程池，有什么优势？：&lt;/div&gt;&lt;div&gt;*.多核时代，利用线程池可以减少cpu上下文切换？&lt;/div&gt;&lt;div&gt;*.以前都是要多少线程就new出来，现在统一管理，反转依赖，需要的时候，直接从线程池取&lt;/div&gt;&lt;div&gt;*.便于管理。&lt;/div&gt;&lt;div&gt;线程池做的主要工作就是控制运行线程的数量，处理过程中将任务放入队列，然后在线程创建后运行任务，如果线程数量超过了最大数量超出线程排队等候，等其他线程运行完毕，再从队列中取出任务来执行。&lt;/div&gt;&lt;div&gt;主要特点是：线程复用，控制最大并发数，管理线程。&lt;/div&gt;&lt;div&gt;优势：&lt;/div&gt;&lt;div&gt;第一，降低资源消耗。通过重复利用已创建的线程降低线程创建和销毁的消耗。&lt;/div&gt;&lt;div&gt;第二，提高响应速度。当任务到达时，任务可以不需要等到线程创建就可以立即执行。&lt;/div&gt;&lt;div&gt;第三，提高线程的可管理性。线程是稀缺资源，如果无限创建，不仅会消耗系统资源，还会降低系统的稳定性，使用线程池可以进行统一的分配，调优和监控。&lt;/div&gt;&lt;div&gt;&lt;br&gt;&lt;/div&gt;&lt;div&gt;2.线程池的3个常用方式：&lt;/div&gt;&lt;div&gt;Executors.newFixedThreadPool(int);使用LinkedBlockingQueue(),corePoolSize和maximumPoolSize一样大小&lt;br&gt;&lt;/div&gt;&lt;div&gt;Executors.newSingleThreadPool();使用LinkedBlockingQueue(),corePoolSize和maximumPoolSize都为1&lt;/div&gt;&lt;div&gt;Executors.newCachedThreadPool();使用SynchronousQueue(),corePoolSize为0,maximumPoolSize为Integer.MAX_VALUE&lt;/div&gt;&lt;div&gt;public class ThreadPoolExecutorDemo {&lt;br&gt;&amp;nbsp;&amp;nbsp;&amp;nbsp; public static void main(String[] args) {&lt;br&gt;&amp;nbsp;&amp;nbsp;&amp;nbsp;&amp;nbsp;&amp;nbsp;&amp;nbsp;&amp;nbsp; ExecutorService threadPool = Executors.newFixedThreadPool(3);&lt;br&gt;//&amp;nbsp;&amp;nbsp;&amp;nbsp;&amp;nbsp;&amp;nbsp;&amp;nbsp;&amp;nbsp; ExecutorService threadPool = Executors.newSingleThreadExecutor();&lt;br&gt;//&amp;nbsp;&amp;nbsp;&amp;nbsp;&amp;nbsp;&amp;nbsp;&amp;nbsp;&amp;nbsp; ExecutorService threadPool = Executors.newCachedThreadPool();&lt;br&gt;&lt;br&gt;&amp;nbsp;&amp;nbsp;&amp;nbsp;&amp;nbsp;&amp;nbsp;&amp;nbsp;&amp;nbsp; for(int i = 0; i &amp;lt; 10; i++){&lt;br&gt;&amp;nbsp;&amp;nbsp;&amp;nbsp;&amp;nbsp;&amp;nbsp;&amp;nbsp;&amp;nbsp;&amp;nbsp;&amp;nbsp;&amp;nbsp;&amp;nbsp; threadPool.execute(() -&amp;gt; {&lt;br&gt;&amp;nbsp;&amp;nbsp;&amp;nbsp;&amp;nbsp;&amp;nbsp;&amp;nbsp;&amp;nbsp;&amp;nbsp;&amp;nbsp;&amp;nbsp;&amp;nbsp;&amp;nbsp;&amp;nbsp;&amp;nbsp;&amp;nbsp; System.out.println(Thread.currentThread().getName() + &quot;\t 办理业务&quot;);&lt;br&gt;&amp;nbsp;&amp;nbsp;&amp;nbsp;&amp;nbsp;&amp;nbsp;&amp;nbsp;&amp;nbsp;&amp;nbsp;&amp;nbsp;&amp;nbsp;&amp;nbsp; });&lt;br&gt;&amp;nbsp;&amp;nbsp;&amp;nbsp;&amp;nbsp;&amp;nbsp;&amp;nbsp;&amp;nbsp; }&lt;br&gt;&amp;nbsp;&amp;nbsp;&amp;nbsp; }&lt;br&gt;}&lt;br&gt;&lt;/div&gt;&lt;div&gt;&lt;br&gt;&lt;/div&gt;&lt;div&gt;3.线程池的7大参数：&lt;/div&gt;&lt;div&gt;1.corePoolsize：线程池中的常驻核心线程数&lt;br&gt;2.maximumPoolSize：线程池能够容纳同时执行的最大线程数，此值必须大于等于1&lt;/div&gt;&lt;div&gt;3.keepAliveTime：多余的空闲线程的存活时间。&lt;br&gt;当前线程池数量超过corePoolSizel时，当空闲时间达到keepAliveTime值时，多余空闲线程会被销毁直到只剩下corePoolSize个线程为止&lt;br&gt;4.unit:keepAliveTime的单位。&lt;br&gt;5.workQueue：任务队列，被提交但尚未被执行的任务。&lt;br&gt;6.threadFactory：表示生成线程池中工作线程的线程工厂，用于创建线程一般用默认的即可。&lt;br&gt;7.handler：拒绝策略，表示当队列满了并且工作线程大于等于线程池的最大线程数（maximumPoolSize）时如何来扩展&lt;/div&gt;&lt;div&gt;&lt;br&gt;&lt;/div&gt;&lt;div&gt;4.线程池的底层原理&lt;br&gt;&lt;/div&gt;&lt;div&gt;&lt;img src=&quot;data:image/png;base64,iVBORw0KGgoAAAANSUhEUgAAAggAAAC7CAYAAAAAPWaRAAAgAElEQVR4nOy9d3xb52HvnbSxtSVqS3Z2nNvk3rdp0jRdt/e+yZs2aZq0SdPGjkdky9rb2iTFKQ6Je4IAuPcCSSwCIAiAewME95LEAZCSndiO49ixZEnE9/0DIEVSFLUlUjq/D7+fA5z54ADE88U5z3nOZxh3IESIECFChAgRMjWfEQRBiBAhjyMOYHzcISAg8Ji5VQRBEPIQ4+DKOFx2wKcOuOqAq+N3z7VxuHINLo/DdeCa4wafMgtTtjd13qvAFQd87ICPXev99PptGIcrs/CpiysO+OSq8/HE65y2TceN8twSV7mvORw4q80nPQ6uA9rGAeIL64grqCW+sG4acTOYOV1AQODeiSusQVRYRVxhLaLiOi5fu47Dqew4GJ/8TxUEQchDy7sfXcU3Jg+PSJmTKBkeUQV3jHtUAe7R+bhHF/NWWAE7/DM5FVOEZ1QhnlGFeEQX4j4NGe7RRdPwjJI5548uxD26mONRcl73TuZwRAGekTI8o4tnUDQN91m3UYh7lAz3KCVbTyVzLFLGych8TkQVcTKqGI+ooknco4o4OQ0ZJ6MKXBTiHlWIR1QRJyPlnJGq+eTT8dvv2AUf51dQSIqGoPRqzmbWcjajZhrBMwjKnM6ZDAEBgXshOLOa4MwqzmZUcCarlpePx/HBnz7huuM6cJ1xQRCEPIrY37tMaJqW2p4PaOx5l4ae39HQ8+5d8Dsaen9Hfd/7FNYM4iPR0Tzwe+pd66nvfZe63nep73tvkob+D6jreY9aF/Xdv3XxO2p7fkdt3+85HpaPstFGQ/fb1He/MwPnvPXdv6Ox7z3qen9LXe87k9T3vU99n3O7Df0fcSgoC415jNruS9R1vU1t1++o63qX+u73qO9+b7Is9b3vU9f7PnW971HnKnddr/M1NPS8S2XX+xw+m0VpeTXj40+6JDgFITSzDIm6m0R1N9IZJM5AXDqdmfPfKWJV16xI1F1zLieZY9nb8aDWIyDwoEhQdSFVdSBW9/KGdwp/+NNlrjuuAdcEQRDyaDL6/hWCpAoMlotUWGxUtI5garVhvANMrTYqLHYnrWNkGnpwj1VT2T6KwTKCwWLDYLGhb7VR3mrDYLVRZhlB2zKMwTo2iclqn8TQZsfQfol9gRkUVJ3H1DrkYtiFDVOrHVPrGKbWi2gbhzBYRzG2jWGwjjpps2Noc27P1P47dvqmUFw/hKnNRqV1BJPVTkXbGJXtl6hou0i5xY62eZhyV3mMbWMY20YnMbWNUmUdw2R+mwP+yZRojE+FIDiAkMxyxKU9JKo7ZxWEZNUEnUhclesEgiAICNw7CapuxKpOQRCEPL6Mvn+FYKmCcstFjJbRG7TeAa55TZZRjK1jZJT34h5biqntEnqzHb3FTrnFjsFio6j6HO4RBfzXLj9+tOUkv9wTgGeMnHzTBcrMNsotI+gtw2hbR9C1X2JPYDa5lYMYWocxtDqn6S0jlJrtpOt6OBqSzy+2+/HT1915+dAZAiRaSmqGnTJiGUFvcQ7LrL9lh286JXUj6M2jGCxjGFrH0FnGSNF0cCAgg//c4cO/vXaUV98KIzi9gqK6YQyWUcrNdvQWm2tdNrTNdvb5SSkuLX8KBGF8UhBE6m6iCxoRKzoIy6omRtaMVNWJVN2JVN5CRJaJeFkTUkUb4mILYnkrMfkNJCg6kCrbiMytQ6zsIEHZiUTdSXhuLRKFldiCRkQlrUhUnUhUXYhV3YRlVRNfYkE8MU7ZgUTeSqLcjLSkGancTHRePYmqTsQKK3FFzUiU7cQVmZGquhEru5Equ0lSdSFVOrcvUbS51t+DVNVJUmkXYdl1SFWdSJQdzqHcQnhWNRJ5CxJlK/GyBqTqzsdeSQg8zXQjUXUhVffyuncqH/7pCuOOcWCcqe2gBEEQ8tAy+v4VgiRK9JYxDObRe8QpAhn6KYJgGUVvtqNtthMsUfP3//IyX3jhO2z84jdY+8WvsvYLX+cL/+Pv+N//8gr+IiXKRjs6yyg6iw2N9R12B2STbRpE3zKCsWUIg3kERd15jp7N4Nv/9As2f+07bPji19nwhS+x+Ut/wZe++bf84Bc7icoyUtYyQrnFjtF8QxCKa4YwmC+ibxmjpGaInR5xfONvf8JzX/0OG57/H2x6/mts+uI3+cr/84/8+KW9xOdVoTfbXGIyjN5iQ+MShBKN4akQhHEgJMOERNPLTm8p8bIm3jqbwYHAVEIzqxDJrRw5k8F29xh2eCYQmKhjl08SoRkV+Cao8RZriZc1scc3GanaKQfxJRZ2+EiJK6xnj28ykbm1iJXtSNRdSDTdeIkUHAjOJFHTSYKqg/C8Bo6G5rL1eBS7vUTs9ZWy45SU+CIzYZmV7PZNIlXTycGgTKTKTsTyLk5L9BwKTGOnl5gTEbns80/CW6QmurCFIyE5BCWXseV4DEEpZQQklRGT38iWw2EcOJ3CPj8p/olqfnMsHIm6Yx5UEgJPN84jdxOC4JgQhClKIAiCkIeW0feuECiWo2u2o2+23SMjlLWMkKbr5kS0GqP1ImUtNjSNQ3hHZvE///oHbNr8JTZv3MSmTZvZuGkTGzdPDJ/nq3/9Q46HZqJstFHWMoKm9SK7T2eRYzyPvmUYQ/N5VPXnefPoWTa/8Ddsfv5LPPfc82ze/BzPPbeZ5577PJuef44NX/gq3/nf/0Z4sgJt8zB68zDa1rd50ycNWc0gupZRSqrO8Zt9/mz+8rfYtPELbNr4HJs2bWbzpo1s3LSRDZs2s+7zL/Ct7/+SuLwKNM3DlDUPoWsZRt00wl5fKXLt03CKwXk1ytmMCuIVVo6eTedYSCb7/cUcD8vgUGAa8SUWAsRK/OOL2OYeQ1xBPW8FZxCcXEZYpglvsYq9fokcOZOBd4KSmMIGDofl4BUvY6dXHNs94jmTqufQ2Rziiy24R5dwIiSLLUcj8IiWcSSiELG6nVPxJez1E3MiLJMTYdkcC88jUdWBj0jJbi8xx0Iy2eUVj1RuIVHeQaCklO0nIzngL+bAaTHbPSLwEyuIkzXhE1/M2RQd2z3i8IkrJi6/DnFRM0cCUwgUKzl8Jo1YWQ1bTkQgUQmCIPC4EQRByGPM6HtXOJ1QgrbJRlnT8D0yhK55mBRtJ8cjlZS12NE0DiMprObr3/0XNm7czIYNm9i8cTPPb9jIxo2b2Lhxs2u4ifUbnuOF7/6QgEQVmoZBSs2j7PbPJLOsD03jIOrGIXzFKp77xj+yaf1mNm/YwKYNG9i4YT0bNmxiw4ZNrN+4kfWbNrF+8xf4i+/9CwmFVWibBlGbL7HVJ5WC6kFUdcMcDU5n41e+xYYNz7Fp4+d5bsPzbN64iY0bN95g0ybWPvcVvvPDl8jQWNE1DaFpHERRP8xeXymKp0kQMis5HF7IlqOhHAlOZ/epWHxjCwgQq4jKb+DA6SR2n4plr4+YkPRyjoZmE55VwRsnYzgRmc9/7/Zj24kItnuKCM+uYF9AEknKJl49FERAgoLo7Gr2nU5HqmwnuqCJ8AwjBwJSiZc1EV3YhFTdzh7/JPb5JuARnsXJsCwOBKaRWtrJ4TOZBIiVvHLoDFtPhLHzVDyxefX4xcl59UAg+3ziORwkZZdnNKclKnb7JuEbX8J2jziOnc3ilUMh+ImUhGdU8KudPpwIyeStoFTOppezx1+KWNU+DyoIgacbQRCEPNQ4pgCfXL7K1WvjjDscwDUuvvcJ/vElKBtsqBuGZqdx+JaUNgxT2jCEunGIJE0XxyJVaJpsFFUO8J9vnmTt819j/fr1rN+wkXXrN7Jx/Trn8/UbJtmwfg1rNn6Zf33xADk6K6qWEXb6Z5OpH6C0YYgcYx//9O+vs3bTF9mwbj3r161n/boNbJi6ng0bWLd+Pes2bGD15hd4ea8vJZW9qJsv8aZ3CgVVg6Sqrfz1D37F6vXPsX7detat28T6dZuc61y/ng1TWL9+A5u++E12HA9HXn0OVcMgJXUj7PGVItc+DacYJgShgmhZC/v9JQRKS9l9Kp4TZ5JxD8tDIrfyxrEoXtwbgHd8EW+dycArroTwnGqCk7Wcii7izRORuIdnc/RsOhHZlez0EREgUbD1WCgnwvIJS9PzVmA6ieoOYoosRGZXsj8wjci8eqIKGpEo2/CMlrHXW4R7RA5BSRo8o2VI5Wa2ecThE1vI4eBU9vtL8YkvxjtejkdUIb/ad5pt7pHs9Ylll0c0wcl6wjOrcQ/LY+vxSE6EZLDPR0J4ZgXi4hb+7y92sfuUiNMSFYfPpHMyMh+R3DoPKgiBp5tbCMKUCIKwoDKlQnbw+GF8Cg46zv+WgIRiukY/5how9v4V/OLlyOttqOoHUdZdQFE3eFco6y6gqB9Eou7gcLgSVcMI0pIWvvTtf8Zt3UbWrl3LmrVrWb12HWvXrmbt2rXTWLPGjdWrN/H1v/ohvnGFlDReYLtfJmllfSjrhgjLqmLz17/LmrVrWbN6LWtWr3OyZs001q5Zzdo1q1m57nm+/f/+F9EZZSgbRnnTK4lc4wBe0TLWfeXbrFm3gfXr1rFu3SbWrdswWY51a9eyfs1a1q1dw7q1q1mz7jn+/kevIpHVoqgfpLhuhN2+UkqeMkHwTSznN0dCCUrWESRW8+p+HzzC8hDLrbz6VhjHQ7OJzq9l28koziZriC2o5/iZVMJSDez0jOXImTReO3yWmPwadvsmEJVtYp9vAr5iDacT5OzzlSJRtxOe10h4ZgX7TqcQmVtHVEETUflNBCXq+PU+fwLExez1k3D4bBaBiToCJCp+fSCQ4CQ1+3ylpJZakSpbicipZJ9/IhFZJk6GZ3BaVEScrIWIrFo8w/P4zaGz7PWKY9epeJJUFkIzK/mPrSfxT1AQnVfNDs84zqSUIRZOMQg8dgRBWNBxOG68N+PAJ9fg46vzh49mcO7dcX64LYK/fS2EwFQjprZ38I5XIK8fQVk3iLz2AiV3gbz2Aoqa88jrziNWtXMoXIGyaZSQdCOrv/JdVq9Zy+rVq1m9eg1ua9ayeo2b6/lU1uC2ej0bvvwddnmKyK3sYZtPBmm6XkqqL3AkJBe3z3/TKQKr17J69ToXa6atZ+1qN9auXs2KNRv54l9+n5Nn0ymqHuGNUylk6AfY6Sli1XNfd87v5oab2zrc3Nbi5uaGm5sbq93cWOPmxhq3VaxxW8mqNRv4i+/9K54ROcgq+yiqHWG3b+JTJwgh2XWcisknMEmDd1Qh//LiHqIzKwnJqOTomSyCErWI5Vb2escTm2MkUdHMm0dDiM6uZodnLO7hOYSmavATydnnJyY2v4Y9vhKS1B1EZpRzJCgdibodsaqT+MIGDodkk6rtRqrsIEnVSUxeHfv8xWw9EcLOU9HOKw0UbYgKG/n5di+8Yws5djaDNI0VqbKZPf5idniLCE7V8uaJcN4KkBKdV8tbwZkcP5vBm8ci2e8jYfepeKKzTZyWavjN4RDiChuIK6hlr6+UmPxaoZGiwDxAEIQFH4fDgcPh4IOPPkWapSBMlENYfAFh8YWPnRBR/jS8Y4r4mxeDeP7Hp/naT9x58XAsR8JlFNUMUVJ97q7kYEIQ5NXnKKk9T4KyjUNhCoobbPiJS3H74rdZ7bYKNzc3Vrm5sdJtNW5uK3FzjZtklRurVq1m/Ze+xasHw0jTtbPNN5M0XR/FVefZ45/Gyue+4Zp/zRSmrMNtNatXrWLNqlUscVvDc//zHzjok0CuaYgtp9JI1Z9jy9FIVmz4MqtXu7kEYa2TVatZtcoNt5WrWL1yJW6rlrNq1TKWr1rDV779fY6eSSanvJPC6mF2+yU+ZacYTHiKtHhE5eEVp+BoUAr7TsXyn9t9CM+u5bS4FM9oOTEFFnaeEnE2RUdIpondXiLi8+t59a2z7PERs8srjq3Hwtnvl0BwipbdfomIii28ciCYU9EFBKWbOBat4EhINr85Ho17dAlbPUTEFzYSnVvLbl8xbxwL5fWjIezzT0aq7sAjuhj/BDlbT0Tyix1evPrWWc6kaPCXKInKq8U9upBtJ6M5HJDIicgCvOOKeeu0lJAkLYcD0tjpHsOWwyHEFzbw6uEQQjIqic6tZp+fFN8EJbHF5nlQQQg83QiCsKAzODiISCRCLpfjcLgO5jvmD9dnYPtwnB+8fpbvbwkho9SKdfgPeMcrKagaRFZ1DlnVeQqnIKs+T1H1hTkprj5PUc154hXtHAhTIKsd4Wy6idVf+g4rVqxg+fLlLF+xguUrV7ByxXJWrFgxDbflK1i2chVrv/QtXj8SiVTdylafLJK1fciqBjgSXsjyjS+wcsVSlq1cwfIVq1ixYhUrVqx0rn/FSpavcGPlipWsXLGcRavW8fm//D/s944ns7yX33ilkKTrZ7unmOUbvsqKVatYtWolq1a5sWrlalatdGPlypWsWrkSt5UrcFu5DLeVS1m2ai0vfO9HHA5OIkPXRl7VBXb5Sp4SQXB1tZxhRKLqIknVRnyJBYnCgqTEwuGQXKILm4nObyAsswaxopO4IjPxJRbi5VZiZc0klLQSU9BAVF4dkbm1iIpaCM+uRqywElvUglTViVe8ijhZM/FyK1EyM1GFTUQVNhEtayEir55YWQu+Eh0hmVVIlVbEcgth2TXEyMxE5jUiVbYhllsIyazAV6IhTtZEoroTsbKd2KIWYgoaiS1oJLqgmdjCJiKzq0lUtROd30hsQQOhmRVIlO34ijXEyFpIUFiJL2ohrsiMSCE0UhR43AiCsKAzMDBAX18fx44do6+vb/Jowvzh+jTaz10iWVbB6LtXcDhg7L3LeMcWk1c1SGHlOQpu4jwFlRfmRFZ1joKqc8SWtLE/VEFh9TAJxS38xd/9jCXLVrF06RKWLl3KoqXPssT1eCrLlyxh0bJVvPCdH7PnVAzJui7e8MlCWtpHQWUfZ7Nq+Pw3/54ly5eyePkylixbzrJlK1i2bBnLli1nybIVzu0sW8HSZcv5zNK1/NX3/4tjQclkGnp4xVNKiv4cviIVa770LZ5dsoLFS5awbMlSli1ZytIlS1iyZAlLFy9h2eLFLF28iKVLnuWZ5Wv5x3/fikdkJpll7WRXnGOXtxjFUyQIoRkGpOqeGZ0GdU72NihxfYE5e0/smsatvvDEyk4mOkKaQKxydi2boOoiQd3l7K75pvVNLNvl2nbX5Halrq6dJVO2NbPnxak9JDo7YeqcXLezB0ehYySB+YYgCAs64+PjfPrpp/j4+PD2228/7uLMkvFpXHU4Dx07G1E6GHvvMqdiisgxnSPf1E/eTQyQZzo3JwWmPvIr+okptrI/VEFu5QUydX38et8Zlqz+olMKFi9m8ZJFLF6yhMWLF09j0ZIlLFn9Bf75P/fjHpJEhuEcr3tnIVX3UlDRR6q2j39+6RB/tmwdi5YuZfGSpSxevJTFi5fcYMkSPrdoMc8sWcGiNV/hZ1uO4B9bQHbFeV72SCJJ04dU0cr3fvwaf75sHUuXrWDZkiUsW7LYWbbFi1my2Pl4yeIlLFq6guWbXuBXe/wISJCRU95FpmmAnV5iFE9RR0mhGeVI1D1I1DMq5ilfYrfqInlm18uzorohAAlTEKu7Ec/anfKtu1uerYtkySxM9tI4c75Z1v34KwiBpxtBEBZsHA4H4+PjlJSUkJubO63B4vzJ+Aymjnf2g+ARLSPbOECesY9cYx850+gnxzhwS3KN/eQZ+sg19RNdZGVfqJKcygtk688RndPI//qHX7Bo6SoWL3qGxYsWsXjRYhYtWjSNP1+ygm/89b+y+2QEZxPlZJrOs8U7g3hFB3mmHnIMg/hJ9Dz/zX/k2SXLWLR4CYsXLb0hGYsWs3jxMzyzeDHPrljH3/7gRfZ4RhGfYyDLOMTLHqkkaXrJMvRzPDKXzV//Ls88u4zFixazdNHnWLzoGWdZnl3E4mefcQ5XbuJvf/QKh/ykJBRUkWPoItPQz04vCQrN09HV8q0EYSa3FoS7I+EmSbj7dcwmBPfD468gBJ5uBEFY0KmuqSE8IoK333mHy1euPO7izJKbrnucMh7s71/BPUpGpmGAHEMfOYZ+sqcxcFtyyvvJNg4QKbOyJ0ROToVTEDL15zkVXcKX/+qHfHbpGp559hkWPftZnn32z/jcs8/w2WeX8mdL1/D5b/49r+31wz08hTS1mUzjObZ4pRGv7CDH2EWOYYB0fR9vBSWz4YXv8meLlvG5RUt45plneOaZP2fR5z7HM59znhL4X//wE3YfD8U/poAcbRuZxkF+7Z6CRN1NZnk/6WVd7PKIZfXn/4rPLlrF5579HIuf+SxLPvfnPPu5RTzzzHIWL9/I977/C3Z5hBMQX0i2rp2s8h7SyvvY4SVBrtE/BYLg/HyEpJcTJ+9ErO5CrOqeFecpiPtHrO5BXDoF9d3SfQfcy3oFBB4tCaU9iNS9xJf2kFDayxbfDP7w8RUc4zf+NyciCMI8TnVtDWmZ6WTl5jBitz3u4tx17O9f4USUjLTyATLLe8ks7yejfODO0feTUdZLur6f8EIru84UkWU45xxfPkB6WR8BUh1//aMtLHvuG3xmyRo+s8iNzyxex6ovfpu/+edX2Ho0hONnEhEVVpGh6yKz/BxbTqURU2IlQ99FZlkPmfoeMsp6OHw2h7/8v7/k2XUv8JnF6/jsojX82ZKNbPjqd/g//76VnR7ReIVlklTSQnZZL+mGQV5yT0ak6iRN302moY9UXS/7Tqfzwt/9jGfXfZXPLFrHZ59dx2eXfp71X/47fviLXew7FYVXZCbJiiayy3rJKOslSdfDdi/pUyIIznjFFrP/rIx9IYXsP1vCvpCb2R+qeCDsC1Ww976QsyekZA7k97l+AYFHw55QBbvDVOwOU7I3XMX/tzOcDz5yCcKM33qCIMzTOFj478uEIKTq+0jXdZOm671rUnU9pJb1EppvYWewjAx9P6m6XifaHtJ1vcQWNLHHL4WfbvPmJ2+487OtnrxxOIxDflI8IzJIKKgmXddNhr6f9PILbPFMI6rISlpZN+naXtK1faRpeknT9hCSWc3rJ+P46Rse/HTLSX6+3ZPXj4ex/7QE3/gCkuTNpGj7SNX1kaK/wIvuycSpOknRdZOm6yG9rJ9UbQ9nUg385lg0P9nqxU9eP8XP3/Rlx/FYDvsnEiAqJFVlIV3bR7q2nzRdN4naLrafekqOIDicn27PmCJOp9bgn1qJf2otfrPgn1r3QPBLq8P3PvFJrZ2T+12/gMCjoR7ftAZ80+rxS2vgx7siBUFYaHHg6hzp8qf88ePLj7s495QJQUgp6yVN20Wqtuce6CZF18PZPDM7g2Wk6/umTU/RdZOs7UKqshKZW0VAsga/BAVBUjXxedWkqlpJ1fSQrOknSdNLWtl5fuORRmSRlVRdF2naXpck9JKq7SW5tIuk0nYisivwlyjwExdzJrWUmIIqkkrNpGg6SNQ6y5CmH+Clk4nEKzpJ03aTpu0hRdtHiraXZE0PUlU7oVmV+EtL8RMpCE/RI5XVk6KykqLuIam0l6TSbpJLOxCrO9jmKX5qBGEc8Jeokaj6kKi7SSztfahINPeHuLR3+imKWbjfbQgIPBr6kGj6kZb2k1Taz0vHJIIgLLRMCEJXv52W9oHHXZx7iv39KxwJLyRO2UOCshuRsueuiVf0EK/s4XRGM2+eLiRB1escp+ghXtFNnLKTWGUnccpO4hUdU+hEpOwhQdVHvLKfeGW/sxyqfl46mcqZvFbilV0kKLtJUPaQ4NpegsqFcsqlcaouRMpORMouRMpu4hS9iBTdJKh6+dWxRCIK2xApuhApuohT9hCr7CFu2uvoRqTsJkHRjUTdi1jVh0jZh0jZ63yNyl6iFd286SFB+TQ0UpwmCL1zXLb4YEm4bzpvw4PYhoDAo6CHBJXz++hXRxMEQViIcTigpdtOdeu5BXnC4YNPrhGWomaXt5Tt7glsdxezzT3hrnjzpIg33RN4/XgsLx8MZ8vRmBvTPRLY5hE/ByLnPK75t3uI2eEp5uVD4bx2OIo3T4rY5h5/G0S3LtfJBF4+GMYrh8LYejJujnXc5jW6J7DNXcRez2i0OkEQBAQEHjY9iARBWNhZ6IIwcWVmc2snhsoGDJWNruHdUI+hoh5DZT1afRVFch3lFfUYKhpc4+vmpqJhCvXoTXXojbUo1OWUGWowVNTehvpbUm6qR2+soUSlRWeootxUMwu1lJvqboneVIfeVIvRVEO5sYaWlhZBEAQEBB4yPYhdgvDiEUEQFmQWuiAArj6THnePj/MfXEw+fpIjCIKAwGNGEIQFn4UuCOOMT+ngaeLTJ+SWmdmdxJOaGYIgFQRBQOAR4+rOXN3Di0dFfPDRZVc/CNMjCMI8zkIXBCFCZs1MQXjsX5YCAk8jzvuevHg03ikIQk+KCyuCIAh5IiMIgoDAPEAQhAUdQRCEPJERBEFAYB4gCMKCjiAIQp7ICIIgIDAPEARhQUcQBCFPZARBEBCYBwiCsKAjCIKQJzKCIAgIzAMEQVjQEQRByBMZQRAWKJ13wOMuo8DdvJ+CICzgCIIg5InMpCCokKhvJQi3q4g6JiskyVPE/VQIEnUXEnX3fSFVd86JRDU3UnX3nNxueYm66zbLz/3Zca7n8b+PjxfXPWHUXUhKu1yC8IlLEKbXNIIgzOMIgiDkyYyD64C/VE2csguRssN1I6ypdN6SBGUnCcp2EpQdJCg7ESs7ESuecJSdzhuLqe4PkaprDroRqXrnoOe2NwESKzvmxDnfrcsnVnbOvbxy7uWdN83quDVPw2flNp8jkbKLeGU38aouEtSd/PItpyDM1lOSIAjzOIIgCHkS43A4uAocDMtjW2AB2wLz2BZYOAPZLdkeKGNHQDF7AnLZG5DJnoAMdgdmsOsJZ29wHnuD8u+d4Dz2Bufehvw5uP3ye4Jy5mRv8NxlvN3ye4Lm3gd7guYuw+6g7Mf+Pj5eMtkdkMWegGx2Bzj3yT+94isIwkKMIPLsiIsAACAASURBVAhCntRcAzxFSgKzmziT18yZPMsMrHNyOr0JcWE9XUPv0zHyHu0j7z/xdIx8QMfwfTDyAR0jv5+D+13+97Tfhjm3MfLB/S1/R2V8/O/j46Zz+H16hj+gc/gPtA5/wFtBGYIgLMQIgiDkiYxjHAfgL1Ei1fQhUXfOcs68e06iilqQm1q57nDe7+P6U8AD2PE4G6Hdittt43bLj3PdcX1ObreN2y3vuM3yDsc4Dsf1WzLuGH/s7+PjZtzhwOGAcQd86oAzolw+/KMgCAsugiAIeTLj4Brgl6hBUtrPvbR+j5G1Iq+wMO66w9Xc1daTgZD7z+0V5+G/T4/7c+SYcle4a+MOAuPz+OMfP3H9F02PIAjzOIIgCHkyIwiCIAiPJ4IgCILwxEQQhDuLQ2BO5l8EQRAE4fFEEARBEJ6YCIIwdxzAh59cZ+TS7xm59D7Dl95nROAm7Jc+wH7xAy698yFXr82HT5IgCIIgPJ7MB0F4FGUQBOEpiCAIc+eaw4Gs3IqfqJSzyeWcSTFwNqVsgaHnbHL5Q+NMSjmBKUaCUvR4Rspo6LS5KtXHWfU8WEG4XcM1IUKETI0gCE9EBEGYO9ccDgr0VpR1I9R0XqK28yJVXZcWFp1vU9X5zkOlpvNtajrfJlXeQoS0kMtXriIIghAhT2sEQXgiIgjC3LnmcFBY3o6iZoS69kvUt1+itmNswVDTMUZNx0VqOy49RMao6xilrsNGiryJwNgMPr58GUEQhAh5WiMIwhMRQRDmzjWHA5m+DUXNMNUdl6juuOiqdO+H0VtPa59l2tRxE49nzFfbMUZN+1QpGKOu8yL1XRep63yb2o5L1NyG2o6L1LRfpKbj4m3nnUm1i6SSFoJiMvj4k6dFEB5nU83520RUyNMeQRCeiAiCMHeuORwU6VtR1p6jpt1OdftFqtpH74rqjlGq2m1OOmxUznhc2TZCVbuN6g67c1qHjUx1LZICPSbrMJVtI1RYh6loG6Gy3TlvZdsI1Z2u+dvt1LSPUm21U9MxRmWbnQqrDW1DP16hSfhGplFoMFPRYaeifZTK9rFp5atot1PZZuOQdxiamnaqO8bu+jVOkCRvITA2g48++fQxv3MPXxCc4665cOBg/KEzszmYw7VtV4GECJknEQThiYggCHPnQQhCVdswcpOFAl2Dc1jWgKKilcrWQWT6JvI0dRia+1FUWqmwnEdd3U6BrpF8bQPKyjYKdA2UmCwUG80UlTdTaR1EVdVGVdsQ2vouTC0DyA1mZLo6lJXO9atrOshSVvPKrmNEJeWz+5gfVa0DFJU1UaBtoNI6jLHlPAW6JmT6Zqqtw7z4xgFKDM1UtdsFQbijIwjOhphXx+GPV118+nD56Op0Pr4G14V/XCHzLoIgPBERBGHuTAiCvKr/ngVBU9POj/97K0d9w/nn/9zC3pOB/Mcru5EbmgmMSWXPiQAColM47BOGb7iUAx5nCJfmEp1cwL+9tJ09J07z01/vYNcxP17afpgcVSXbD/tQVt/JqbMiMksM/NOP/xv30xF8/6cvsd89iG2HvEmT6Xlj7wmyivW8sdedrGIDu474c9wvCt/wJPwikjniE8H2g15kyQy89Pp+ig0tVLQ/+UcQnLclvn9BGHdAtWWABFkN8QV1iB4ptcTmlHNh7P1HvXOFCLlNBEF4IiIIwtyZKgjV9yEI2w/7UN16jl1H/ZAbGvnZy9vIVVdw6mwsbx70YL9HIPmllXzvBz8jVaYlJrWACGkO//HqDhTGRt485IE0V4FPWALSXAVvHvJEW2vFIziGzJJyXtt5lFrrebbsOYHC2MzWg6eITS3gn370Cw55BJMpN+EfkUy+qobSilZ+veMoWw+eQmlqIVqSjUdANL96bQ8lBjNV93KU5GkUBMc418chX2smtqSN6KIOYh4h0cXtnM2sxNw3hgO4/qh3sRAht4wgCE9ExgVBmDNXHQ4Ky80UVw+4KsG7/3Wtqelix+HT1FhH2HU0kBJDEz/99TZCxVls2XuCoNgU9p0M4HRUIr/e8RbuQdGES3MIk2TzH6/sRGFq4s2DnkhzlXiHihBny9my7wQZJeVsPeBOerGeV3Ydo659iNf3eaI0tfDGAQ9iUgvYcdib+s4Rqqx2QhLyiRDnkC038uahU+w44k2WwoDX2ThCRKn8/LVdFBvMVLfdvSBUttmpbLOTWNzE6ej0eScICapOElRdiFTdJJR2IVK0EiezIFZ3IVJ3IS69t0aK18Yhv8yKuLQb8W2E48HTTVh2HZbeS4DQ0ZGQ+RRBEJ6ICIIwd24Iwrl7/lVd3nyOyJQSKq3DRKWUoK3vJSAmk6JyM/s8QjjkE0VshooQcT6q6k5OR2eQUmQiS1lDUFw2ZY39RCYXU2JsJamgHJm+hdgMFTuPBeEXlU6J0UqIuJDajjFCxDJ0dX1EJheTpawhJl1JdbuNirZhSms72OceyAGPYNTVneSo69hxLIijp2PRNXQRHJ+Ntr6fKuvdS9BUQQiImX+CIHIJgri0h/D8BkIyjYSmG4jOqSI6r454ueUBCELnPbV1uB/CsutpFQRByLyLIAhPRARBmDtTBWGiErx/RqlsG3MxOuP53TA6ZThzGzfmq2gbw9Q2RkXbKFVtNqqmTXduv6LNRkWbnQrX/Pf62qRFjfPyFMOkIKg6icqr5ZVDwfjEyXjjWASvHY4gMq/ungUhT2dFoukhQSUIghAhzgiC8EREEIS58/AF4UEwUxCmr7+ibQxTu52KNjtV1lGqrGMzpo9iardjah9xYbtvQfh4nglCwhRBiMgy8cbREHZ6xRNbWE+MrJnEWU4PCIIgRMi9RhCEJyKCINycqfvh2kMRhCcXpyBk8vHl+SUI4snKu52AZC27/STs9RVz4HQSR0NziCtqvu9TDAmPtP2BIAhC5nMEQXgiIgjCzREE4ckVBImqHanKQmiWkbB0Pa8cDmNfQBoxhQ3zQhCk6m4kgiAIWfARBOGJiCAIN2emIBToWyiqHMBktQncgoUkCImqDhLkFqLzagjNrCS6sAmxqv3eBMFxa0GQqLuQqCYup+x0DpWdNx5PzKPunnLJZadTEJSddyQKgiAImZ8RBOGJiCAIN+feBcE+Zfiks1AFoROpshOpsgOJshWp0opIYZ31EsU7EYTrcwjCRIUfL2+brPgnpEEkb0fiEgWpupv4EitSV/kk6i6kqk4S5FYSXfMLgiBkYeVmQfhQEISFF6GjpLnjPMXQSnHVBUzW0ZswWkcprOhDrLA4Kxp5Kwly6wzaHzJts2xzKm33tX6xvA2J3IpE7nx92sYhKmbZFybrKNKiBgJj0+epIHQhUXXiL9VyMCiNQ0FpvBWUyoGANCJzah+4IEiUHYiKm/GJl3MqWoZHTDFieStxBY14xRYTlKQlLKcKiaqdY+EFhGVV4SUqRVTSSkRuPccjC/GVqJCqOpAqp4uCVN2NRN1NeE4DrX1vA4IgCJmfuTbuIFBUwId//ATn/UOmRxCEeRxBEObO7QTBYLHjnaAhMK2SqPx6YvNqic2rnkHtI2DmNqdSc9/rj8mrJyavnpNRcqIz9JS3DE8XpVY7xla7SxBS+fjylcf8zt1aEEKzKglO0RKQqMI/QY57RAGhGRUPXBCkqg4ic6rY6ydlv18iR0KykcqtBIi1nAjLxT0yj1MiBVEFDbwVnMGJ8Fx84pUkyC14iZTs9U/iREQOicp2pMoupDcJQg/hOQ1YBUEQMo9z7ToEigr44CNBEBZcBEGYO7MJwkRlaGy1U2624ZuoJ69qAFPHGKaO2W50dPHhMHmp4p00ILyfyygvYmq7hLHtHUTFzezzjqNAb3Xuj1b7LIKQMq8FITy7imNh2RwLzeJIcBo+sSVISswPRRDCMk3s8BRxKDAV9ygZ0XkNeMXICU7ScCgoHW9xKf5JOvb4SnCPyOVUbDERuTX4JCh5+a0QDgalEphcjljRIQiCkAUZQRAWcARBmDt3IginE/UUVPZR0TGKqcNOdbuNmmmM3oYxatou3pr2senzup5Xt9mpclHtompWRqluG6XKanf1gTB6i/nmwOrsLyG+uGG6IMx6BGF+C0JkXi2+ohK84mR4ROYRlmZAeo89Kc4tCJ0Ep5ZxKDCNg6eTORScQUx+A5JiM8dDczgRlodU3UGMrJETEdn4i0sITi4jvrgZf6mGff6JHAxM4WyaydluQhAEIQswgiAs4AiCMHcmBEFWcW6aGEwXhDIKK/tcPRHaudE74gS3+3U/c/65lr/xvMLVOLDCOkKFdZjKNttNVLXZqG4fparVjra2lwrrKBXtF++wXDO3O0Z8Uf00QZi5P+a3IHQgUXURllWNe2QBnlEF+MaVkKxqI1HV8eDbIKg6iC1sZJt7HIf8EzlwOoWYggbiZE0cDM5kj18KAYlliIqaOR5RgGdsCX5iLfHFZs6mV+AtUrDdOwGx3CKcYhCyYDMhCH/46BNw3HxLMUEQ5nEEQZg7dyYIOgor++Y4nH/7CnjuX/A2qtpGXNgmn6fLK9l5Ioi3fKMoMVmnzDOdGquN0soudrx1mtqOt11dKd9td8qjVLSNESurW+CC0E1gspGd3hL2+Eg5cDqFk5EyxHLrgxeE0h5iiywEJJURX1jPyahCInLriMitI1bWzJnUCk7FqJDK2wjLrCEkvYqQ9EriisyEZdcQlVeHl0iOVNkmCIKQBZtZBWHKv5MgCPM4giDMHedljpY7EgST1UaF1eb8lT4Nu2v8zVRabVS1jqCt6SYmVUF6cSVldb3EpasQZagxtVwgVWYkLk2OqrKN9OJK4tIUKCusRCTmczoqhYDoNLYf9kdb00lUsozkAj2mlnMU6ZuJTi4io6gChd7Cb3aeoLZtDGOrfc4yzc4oJusNQcgva8U0y/5YCIIgVXWQqDCTpraSomwlJq+e+OIHf4pBrO5G7OrjIFHdhVQ9cZmj83LGRHU3KaV9JCq7SVR1O4fKThJVXUiVnSSqOklUdyJVdQqCIGTBRhCEBRxBEObONYeDwjkEQW+2TxMEJzOvdrh1vwmVrTYqWi5w2DuSuDQ5ogwVe08EEy7J57h/DDEpxXz/Z6/hE5pIaoGe7Qd9iE8rYfex04SKsznuH8mJ09GcDIhj2yEfkvO1HDwVQnRyIW/sP0VmiZE39niQkFLCa9sOU9dmx2QZuYfOkJyvZaogzLY/FoIgiOVtHAvN4VBAGhGZJs6mGglMMT6UUwwSVQdS11Dsuh/EDTqdHSe5OkWSKrunkajqmfJcEAQhCzMTgvDhHwVBeMi50fnE1Ge34k7Wdh1o6RmmxjJwf0W610LM81xzOJDpzU5BsNimYbDYKGuxc1qqJb+iH8MsFaax1e5s6d9qm8TYasPYOuL8Jd9qR994jjcOeCHTNWNqHuCXWw6Qp65CnKXgiE8EP391H3KDheikIv7vj19i615PTvjHEpqQwy+37Cc0IR9j03le230SY9MA0SnFHPMPZ+vBU1RZzuMZGEeUOI+Xtx+jqs2OwWKbVp47oaLVjrF1jNiCOvZ4TRGEGftEIqsnIGZ+C0JsYTNHQjI4EZpJSKoW77hizqQbmXmjpfsXhM5JnHIw80ZOnTPm70Ki6p6FrklmzjtVEIQImV+Z2lFSvksQhI6SHmJm1rr3Xztfdzgwdw9RZ+l3rdJxl4zPzQLPtXEHRWXOIwgGs20a5WY72pZRAiQa8ir6KW+138Rs0mBotVPeOkJ56wjG1hHKmwc4eOoswbGZREjzeeOAB4ExyRw6dQZRZgk/f3U/xXozmcUm3tx/iswiPfnqGkJE2QTFpGNqvkCFZZhX95wkOrWQ/Z4hxKTJ+dW2I8RnKHh113ES0uX81xtHqGgbo9xim1Vk5qLCYsdoGSOmoJ49XvHkl1mdr2XGPnEKQjIfzVdBUHYRkFTGGycj2OMdz3aPaF48EIxY0fLABeFRIAiCkPkZoavlRx7nznXgcDicdfPk+HvHKQiD1LoE4a79YAY4wOFw3CjYAs/1OxAEf0kpeaY+9BbbrMxcTm8eRm8eprzV+bjcMkSR0coZSQGJhUZkBivBYhlhyQrKmgeRFlShabiAvukC4mwdgbEZpJVUUlDWQqG+FZPFeZQiT9tEcEIWcZlKtA3nSZPX4B+TSVKhAU1tL9ICE6ZZKvXbYTTbMJltGKYIQp6uddZ5570gqLqRKKz4ioo4GCDFOzYfrzgZUfk1giAIEfLAIgjCI8/l6/D2769iajlPdmkz+Xorqpo+VLX9s6Ku7UddN5WBKfRTWttLaU0X8fk1RGVXoa3rp7Tm/lBW9ZCpaEBd3Uf/6GUuX736uHfbfeWOBEGsJvcuBKHcMky5xY7ecgl1wyiy6iHSdf1E59VzJq0Sb5EGr7hSPOPU+Ih0nE2vITqvmSz9ACXVI6jrh9Gbx9CbRym32CcxWEYxWEYwttrQN4+4tjdKudlGuWUEvXnkruVgApNrXTEFdezxiid3oQqCsgvPWAUHAhM5GZ5FcJKK4BQtkXnVgiAIEfLAMg8EwcE441xnnGszCnZ3h7ZnOzA/f5TmGtcccP7SRyRkGohI0pAqb6LA2EtOWRfZug6ytO1z0DaF6dOytW3kaNvI0LSTUdpBjq6dbO390oHM1Ee2tp3YTBOhkgKqrcNcGQcYxzF/duwdZaoglLeM3ISmZRR/sYZcQx9lZttN6FxDfcsw+hYb2pZR5PU2wrNq2Xc6m+MRxfiJtUTlNJCkbCdT10Nh5SCyyguUVA9RYBwgXdOFpKSVyKxq/BNUHA2TcfBMAdF5jSjq7Wib7ehbbJS32JxD8wh6s/NxWYsdvXnUWQbXuHvB0DJCudlOTH4de71vCMLEflgYgtCJWNVNdKGZY2H5vHYsCvfoIjzjlMQU3VtPilenCYJTQiaQqJydG000LkyYgSAIQp7czAtBcODgOg6uTynPjYLd/uz8bOfzmTHuVtMeTa5dd6Bv7CMiqxx13QWq2t+hqv0SVe1jVM5LLlLVPkZV+0WqO95B12xDXNRIWnEV7394dZogLARXmEsQ9C0jlDaP4i/WkmPoo8xsvwmd2Y6uZQRN8yipmi48Y9R4x6lJKGpG1WBD33oJo/USFe1vY7SOYbKOYXTdBOrGc+c8xra3MbReQmu+SFHNEHGFjXjEKvGMU5Jt6EHT4hKByYrdPslsZbtjWuxOQWixE72gBaELsaoHibqHRHUXETl1iEpakZZ2I1b33psgjM88gtA5idR1BcPUqxhubqTYcRfMXL5r2s2ahAiZP3nsgjDO1CrmGvDJONjfvUJt+zAlFe1kqRuIz9JOJ7uMDEUtReUWTOZzDFz8I3+8Dp/etMaZxxMefXV23QFKk5V0eTN6sw2TxYbRMoyp1XmZmtHVyO1W3PbStdssf6/c2IbrcHfrRQorB0iU1fLb31+e1Lfrj2Wv3l3uRhB0zbabablInmkAz1gVZ9OrKKw8j958kXKzDb15CL15BL3FjsEy5qzIW5ynLsrNdsqaRzCY7ZRbxihrGaWsZRT9BM02ys1jaJvHyDH14yvV4S0qpbhuiDKznfIWu/OIQrONstnKdZeUNw+jb7YRlVfLHq84cnWWBSsIYlWP65f9ROXdhUjVfV9HECTaXhJU3YjVPZNIpiBW95Cg7iFB3TuFHkSqHkQT00p7EWtuQ2nfNMJzGmjtFQRByHzLYxQEh8PBx5+OM3TxD5Q3DZChaiAqs5xAiYKzqRriC6tJVVvI1LaRb+qdRoGpj2x9B+kqM4nF9URm6AkQy4lI15FSUoumrpee4Q/4wyfXuT75Wh5PNVbbPoxEVkm52YbJMoLRPIzRMnTTpWWPl5G5abVhaLWjt4yRZ+gmVVbLH/80/hj36t3l2rgDWZmFwoqBWQTBNkMQRqZgo7TJRrq6jdNSDZll3Wia7OgmDv03D1PWPERpXT95OjO6+gES843IK7rQNZ6nrHmQssYLFBs7yFI1o645h6buAsrqfrQNQ05BaB6hfGJbzaOkqNvwk2jJKu92Tm+xo28eoWxaue6NSUHIrXkyBEHZOUUQOklQ9dyTIFx3QK7Ogm+KCd8kA36JUzFO4ptodI0rn8Q30YBvkhEviR7fJBM+SQZ8k423xC/JiH+SYRK/JCPuMUosPRcf7a4VIuS2eUSC4ADGXcelxwH7u5eRV7QRkawhNFFNirKZoppzqJvt6K2XKLdepNw6hsE6isE6irFtBtapwzGMbRcxtl1C02ynuPocGRoLEWk6giVycrVN9Nve5/pEC/1ppXp4cTjgnT98SpBEhc7salzWMky5q/W7fuJ88iPBPgc25y/gW1BuHqHc1VCv3NVnQHxhIwqDBYdjYXTscs0BMr2ZQtMA5ZPn+Z1HD8rME4KgI7e8F33zEGVNQ5Q1O9sFpGk6CE7UUlwziKZxCE3jEKWNQ5Q2DaFpHEbXNER6STUR0kLUVe0c8AwlMDaLxEITmobzpJVU8YvfHEKaV8ZBr0iC4/M45B1DmqIObeMw2sYRtI0jaBpHKG0cQd00Qo6xD39JKTn6Hsqa7ZQ1DaNrGkF7n+iahtE22YjMq2OPl4gcXeu0NgoT+0YiayAgJpWPPpmvguBkZh8Fs53fvxNBGAfG3v2Ylr4xzH0XsfSNYekdw9I7eoO+MSx9Y7T2jU7D0jdKQ7edxIJymnrHMPeO3hZLr30Ko5h7x/jDn67NWjYhQh5fHoEgOJsbOg9FD71zmWRZFWcTS0lVW9E0jWJq+61LBG5cc26w2iflwDApAbfHYB2dvHbd2DaGxjxKZnkXoak6ojJ0tJ77LVdvEoX7zOwNI3AA+ToL2fpOtFN+pZWZHwdznZ+23XZ5vcWF67mifhjPiExG33mPccf4LDvhYXDvb8xVB+TrzeSb+qec078hQdpmG95iPaLiVtQNzqMCusZBVA3DeMSpyTP2o2wYRtUwhLp+EHX9IMqGQVQNgyhrB/AKTSE4Lge/iDRe2+dFVIocr7B0Cgyd5Gka+K/XDxKTJudYQBwZ8ip8I1JJk9ehbhhC1TA8iXJiWD9Eamk7JyJlKGovoGsaQts0fN9omkYobbYTkVfvEoQ2ylpsk20Uyl2ICycE4dN72O8PMnMLwp1wJ4IwuTWHYxrj4+OTzJx2g3H+dOUaplozn153Pr/1vLdGiJD5l0ckCH+4Mk5BWTNBiRpklf0YWi+ib7GhaxmmrGVkkomKSNc8hK55iLKWYVcFNfev3JuwTFRuNrQtzqMS8oZhQjMNSIsqefuDB/jL6KY6zLnz/vinccLTDGhbRtA2D6NzoX0sjMyJbkr57owhApLLyJLrGb/+8AXhXr5AHVPE5aoDCvUWCoz9k+f09c1Dk+iahvAUl/OqZya/Op5MdFEbpU2jJKva8U+qQFE3hLx2EHndEIq6QRR1F1DUXUBeN0iKopFdJ0I46hdHUqGJvR5hxGdpiM7QUGDsIltVy7/+9zZE2aW4n0kkJkPN6dhskkvqJtcxFUXdIPLaC8iqBzkZVUREuh5to+voRdPwfaFuGkbdZCM8t3ZSEHTNI+habJRN7hcb4sIGAmPT+Pjy0yUI91rGTz69hrGmhav3+h0pSIKQeZmHLAgOB7z9+0+QyqpJ0VjRtoyiax6hbLKisaFrtru4+ZesrmUIbfMQ2qZBysxOWdA1D6NrGZpGWcvEuOFJyszD6Mw2dOZR1xfgCFqznWxjD9GZWroHf/tgDo/f4kfuefsHBKcZnV/OjTY0jSOTh6gfJdo74K7X23ABiaaDU6FJfPjBhw9iL869ix0O2traCAoK4vLly7f8Mp341TfRCdVErjugwNBOYeUgZc2jqOpt5JnOkVHWTZLKSmxhI1tPy/hvjxy+9jMfvvYzf/5tj4gjkVpCshsorjlHUfUFiqouUFR13kn1OWTV55FV9PGWn4iIJDmSfAMHvKPxCE3hVEQGhRXdRKXJ+ad/e4kTQWKSiqp4yy8ecZ6RLJ2V4poLFNdcoKjmAsU15ymuOTeJrGaQgKQyjp1JR1HdR2nD4H1/FtRNQ6gbbYRl10wXBBdlzSPom0dIKKgnMDZdEIQ7LOMnnzqPIFxdCOfbhAi54zwAQbh5rMP152Dk3T8Rk6En1ziAumkYbeMwmsYRtE3DrsOmdrRNo2ib7JQ2DJOlbqK0fgBN43m0TUNom4dR158nqbgadf05JAUGMtX1FFd0om0aRF0/QJqimsRCE9maRrLUDWSoGsg3tKFpHqK0eZjSZhulTcOUNg2iaRqktHmYopoB4nIMmHttk63xZ17rcOcHvqcueeNRU7eN8Lx61A0jlDbYKG0YcZ67bhieE03DMJoG53ludeMwpY3DzuWmoHZNUzeOTJ/WMHW+QdSNg5Q2DqFtmMogmoYLaBsH0TYOUtowiLphEHXD0B2jahgkw9DLIX8x586P3PnnbeYn5eZdN2uuX7+O2dLKKS9vPv7TJ1xzOCv96w7nJWofXh7nnQ8/Zey9Txj6/9l77/i2suzOk1Kpgqqqq6vbbseeGe/aa+8ke9azM7P+zMyux2u3x7Hd2R2qK3W1KiuVVKIkKlASgyTmnAkQAEGCIAJJZAYQBJOYSSSCWVkqiooUSQDvO388MEmURIWSVNU8n8/3QxLhvXvve8T94dxzzj1zFffoJF2eszg6/VgcvVQYW9gaK2fTwVK2xZfzaZKGvWlaDmTVEFNgIbbIxpvRKt46ouOP/iGaP/lBPL88UkG0pJnoogbKG4YpbxhC1TCEqsEfZpDyhkHk5j7e251KaokZeU07B5JL+P4vdpAiNSAzniAmq4x/emMrpeZO0uQW3twey5GsCgr17VTY/ajsgyILx/VR3uCltN7PrmQ1Ww/lUFHbS1Xz8G33wf2ibxlB3zK2IBBkxq6wB2lNIDxMG0WB0PbAHoQ1W7On0x6BQAgB12eDXJsRFh8R4MbNEAnFZsprvVS3nKSqOTyBLWOUquZRqpvH0DcNcyhFTrq0hhrnIOW2fmqakidJXQAAIABJREFUR1AaT/DhngTKLJ3sTywko6SagylydI5BtPUD/HjTTo7mKPn0SCZJBVoOJJcQna6kunVxnfhWqlpG0DgGOV6gwzd28bbhuB9CCARC4jpkcMm42DuHiJc50TvHqHKO3AejVDtH0DuH0TlH0TtHF9a9q5zD4cdH0DnH0DnH0TtH0TcPoXcOUeUcQu8cQe8cRds0SKXdLa6bh6luHqGqyU9UoowCdSNRiTJx4lg4psi92qhxDiGv9fHh/hw6ezx3iBYQwndHaPHvhVrOywc8hLjh1PyiwI05uHwjxMUrs5y+eJ1zn10hKEBs/DGuT8/Q3uOjVO8gX2Eiu6SKwnILJZp6lNUOtLYT1DR0Y2tx09I3Sp//DIMnr5CjbkVi8qN1jlPVMkFN66gYuNc2Rk3rGFHZVranGPjxp8WkqbrROkeQ1/rZmaxHZh1CWTeMsm4IZb2fsjo/ZXWDlNf5yK1s5d09GcTkVROfV8VHUam8vf0IUUkykkvMSKrb+M4vdlNi6kJSc4IPozPJ1TZTWNVBWb2Xsrp5fCjrfJTWeVDW+yis6eeXe3PYnySjsq5PvL4LYu7BEO//JQLB0CWK9TWB8FA2PRNcEwhr9iW0hxQIIcQ6iN6xs+xPr6R75Cqzoj6g1uEit7IDffMoWucQWucIuqahZeibhtE3jYjVAI09HEpVEJ+lorCyiZisSqqafBzNKiOtSMMvd8by9rZoDiQVEZ+jpszah8rSzY9+uYN9CfnsOJSOTO8kRVJNbI6a6tYRdM1D6JqH74jE0ElcZjmXr4hbWIbCvVo94trhbCCAXNuI3NLFZzfESoM93lPESx1om0bRNY2sGn3TKNpGP3JjJ+W2PjR2L5oGD7rGQSrq3GjsHqQ1J1A3eNA3jVBR60Ju7EBr91BZN4De4UdV6yZf3cAn0WmobD1U2j3ITV2o612UWXr4+9e2o7L28MtPE5BWn0DX5EfrHFng7m0cRtM0iLJukA+jMnG2dN1BICxaMAQ35+DqdIjPrgU4dznAxMUZ3KOXaOsbx9bsRm1uQ1JhI1tWTa7CSGG5GYm6FpnWTm1TF4GQQPyxBG7cnGHizEVOXrjOlZtwU4DZsDdhXmjcepPPBqHM3Emp1Y2xdXgx6K9N9GZVN4+wJ9NAuroTtUMUQXrnELrmMRLkzRwuqKPENoS81o+idjCMl9JaLzLTACWmfopquklVOlBY+skud/DD96JJVdSjtLn48GAuGeWNJCvqiM7REV9kIklej8LmRWHzIrd5wriR29yUmD3sTlLzQVQ6SYXV6B2D4v+L8+HQOYfQOUc4KmvkvT1rAuFR2ZpAWLMvpz2EQBCAmSDcCMK5K/APH6Ty7797kJhcE6MXQ6RIGlDV+9E6h9A0DaFpGqOyaWgZOscwOsdwWCgMsy9BQmpxNTq7G12TH73Dx4GkEjbtiKHU1E5cVikHk4uJySinSNdKZW0ff/FPrxObKedodhm5SguJBTpisyuoah5C0zR4V1SNg3x6VEZDm4ebczAdFPdKWC3T8wRAYfHxb/9hN9/+KB11gwfHwFliJXVUOsSgs9WibfQTnarkl5/E8N03tpCYr+Gd7bFEHS/mSHop72w/zJubD/D+rmMUqhr46bt7+el7e9iXUMyWfcmUGU+weV8KUccL+G9/+88k5ley40gG7+2K4/tvbye9pJqfvL8PTYOLXUeLiEpSoHH4xSC5VbfTh6J2kPf35WJt7GRqGiavw8SFaQaGztPQ5kNv60CuaSC9UEumREeOvJp8pZlCVa34bb/KQXV9N/YTfro9Zxk5fZ0LVwNcnxOYDgjMBAUCITFFMQS0d3Tx/ocfU9fQGL4B5z0S87+HFv9mafpliNmQgNLShcLqEZeubskKqG4eYW+mCUmNiyqnH71zGG3Yi1PpGOVIvo096TUUm72UWP3IbH7kVh9yqxe51YPM6kFm81Bi8yC3eVFYPchMA8gtbmRmN3KLhxLLACUWN1KLF6nFhczqRmbzIbP5KLF6kVm9yG1eJEYXO46V8+7edA6lSFFZuqkOe44enUCw8+4SgTDPmkB4MFsTCGv25bSHEAhBAQpKzeTKDaRKTfzFW4n8xrei+P3/Gcl3P05lR6KO8oZB1I1DaJpG0DRNUNk0QmXT8AKa8ORZpD9BXF41b245xNYDaUQelZBf2YK6YZD9KaVsO5JNTI6GI5ll7IrLYX+yjIoGN9KqVv7k//s2H+xJIFtpY9OnR0ks0lFc1YK60UelYxC1w78Cg6gdg6gcI2w7Vs5H+zLJlVeTV2oiT2m8D0zkKi3kKS18ckzFH/79If7VX0fzR3+3i5/uyuJggYWKcBDanfEvQ13r4vtvbecXW/bzNz94h+NZKl57bw9/9Z03kWmb+H/+/+/xwY4jfO+1LRw8XkTUsXwqG/rJLrPyzo5Y5IZ23o88TkFlPZt2xiHRNfFX33uT9z49wn/9mx9zOE3GL7bHom30EZNdyScxeVQ6hqh0DKFeFX7Udi8ltkH+dlMcHx7IIrW4hpR8DUXlVirMLdg7BukfvsjE5CyzwAxilctZxKp18zUplsUghCf3lXaXDoUEenp7sdXV097RudL9e/t7mI8smRcI3Sis3hXT/0SBYKbY4ELn9KNzjqBxjqJzDqNrGkbtGCWmwMa7B4s4rmihwORDavEhsXiQmD0Um91IzC6KLa6Fx6RmjygGzB6KTeHnzW6KzZ7w61xIzG7xMauPAqOHeImdN3ak8v7eVKJT5ZRUNVPl9IvtcA6HJ/gHZ96TNy8QSgwdy8TSvBchvayJQ1+aLIYuNLWdYYHw6HNsAG7MBrA5WhcEwudxnvtt071H9ulv4+fZh6fBnvQ1uB/mQgKHMpRcuTrNStVvbvcgCAJFqnqmZgRGrwh8d3Mm/+d3D7ArWUP3xE3iiq0o6rwo630o670o64dQ1g8uUNbgp9w+hMrup6zBS6l1gJ0xWcTlqim19FFe50VV7+NQlorcSjvSmi6K9S38j++8xbH8SvK1LRwrrOLbb31CrroRhamb9/YmEZevIb2sDnWjH5VdPMdyhim3+ym3+yhtGOKTY2Xkl5qYvDLDtVlhgaurYUbk8myIUpuXf/ft/fzNpmQKqnowd53kiKSOMvtQ+Hx3YpByu2+BiloXb205QHJBBQUVDSiqO/jxpkj++gfvkCUz863v/4K8MgtSjZOjWSo270ukxNBGUpGOn3+0j7yKen7+0QGKNA1s2hGDROvge29uI1thoFjdQLbCwk/ej6KiwcOeJBm74nLDwXL3auciFfZBJFYvr+/OYW+qnDbXaWZCiy7+p+UfUGxJiDlhNQLBSKGhH03TMDrH6G3ph5WNI2Sq23kvWsKmAxKiss1k6HrJrXFTaBqk0OihwOihyOSm0OSmyOhZRoHRRb5xYIE8o4ucGhcpld1EZhp5a08ub3ySyPYj2RzPKafM1EHlvMfmlrY8OKKnaEEg1JygpmUIQ+twGHE80pRNHEwp4tqXQiAsehDg/hYQb19QXOneFpiencPmaCWw5kH4YtkXXSF9zrZcIEB0RjlT1+5DIEi1VmYB/+lJdh+XUd9zmhszoXBhmg5y9B0o7X5Kw5NxaYN/Gcp6HzKri4LqLiQ1PWw7ks3BdCWFVe3EFxhQWPrZHpPHrmNFHC2oYdcxCe9FHmd7dAbR6WWUGE7wk48OkllmR1LdxcfR2aQqbCTL61DWeiivH6SsYSl+yuqHxJ8NfoqNfWw+mImu2kxo9iYPeuUEQpQZ28kqb2L04jQBoMt3msNFDZQ1LJ5vZQYpa/AuUGH3cjhDyU8/OMBbO45yrLCGvQlSojOUxOZo2Ho4i3/+YD+bD2STr3byxuZofvDOLhIL9Lz+0QF+8n4UO2PzUZi6+PlH0RzOKCMyLp/XPjrAL7bHk1NWz//88fsozJ38Ymc8xwt1y8fnHpSHI/glNi/vRWVirG+httmFraWHKzfnnrJ7f1EglJq7VhQINS1iAOfeTCMFhj40jmG0jSML3q2FpR/HEJrGIZR1Po5KavngcAn/vC2Ft6OK+CRZx77cWo6WtpGm6QnX83cvkFkl1vhPVncTW+Jkb46NLQmVvBmVz4+3JfHO7gy2H84jNkNJQUUDlQ0utA6/eN5HJg6G0TgG0TQNE19i59096Ui/MAKhmuxqL9n3KQ6y9P0kl3csEQjC5yMQZuaodbQSFL5An/5rtmarsKUC4dD9C4Q6gsBMQODGXPhwQpCAEOLctVkO5FQhr/OgqPcgrxtEXudbRmmdj2JjH/lVnSgsLoprOpEYuigx95Onaae01oPc6kLVOEi+vgOZxUVZrYvIY8XsSymlrHaAyEQZ2RUtFFX1UFjVhcTYS2F1Nwqbh9I6H6V13lsYpLTWj9w6yKGsKuIzpHR0dUEowNJ/7vsVhLNzi+8WEGjqHSW2qFGMeq8fvAveZZTWeymvd1Nmc1PW4KGswUt5mNJaN+pGPwrrAOX1fsrrxbS7snoPqoZBVPVeyuo8lNkHKa33UdYgenAq7D4Utn7UjcOo6v389KNDZCnreGNrHOW1LpT1vnu0cSk+yuvcFJk9fBCVgdPZylwIegZPo6xp5PTluaeo/LIoEGYFgVJTFzKLZ2WB4BwWBUJNL5WOIbSNwwvLLiJ+cXJ1DFIZXqaqaPBSoG3lYKaGj48U8NrONH64JZF/fC+Wb78fzw+3JvOjbcn8cGsyP9iSxD+9G8N33o/lh5uP8dNPknh3byafxORxKL2UpCI90poW1HbPQqEkjcN/SxseBYNUOoaIl9azaXfaF0AgiBu4HcytIavaQ3bV7Zsxrcxi6eWU8l40tm7mAgLBAMwFH57ZJQRCcHUmiLmpg2uzIeZCYmGuuxH4nAkKELoLn/f5V9vGh+FxtCEQ+px5Cq7D3ZgTxADw2RDcCAocyFCtXiAEBYESTf3C36FwToM4PQYIEKRz+BKHcvQUmtzIrD7kNnc4mMtNic2DzOZFbhtEXjuI3OYLIwZrKWxeZDYvMqsHea0Pea0Pqc2LzOamtNaNotaFwuZGWetBYfWitA0it3pQhCPCxfeK75dZ3eGf4uMlVh+xBRaijhVQoa1mamoSWD7hr/ZbBYQj5xcC5MS1zpbeCeIlTaIgqfNTWjeIstYXFi23sihg5HU+Smu9KGt9KOrC1PpQ1g9SWjufCuejtM6PwuZHUetfOI68VnytvNaLvNaDotZDad0giloP8lo3ijofpbWDFFZ3I6npoUDfIb639u4obqGs1kN2TT8f7kun2dkGgnjlz12epsxgp8s1QmBhLBfvG4HPL1BsZROv5LwHQWbx3F5hMCwQ9mQayavuRe0YQnObQLg9FqPC4aeyyY/G4aXM1kOJqZM8jZMUuY34fB2HMso5mFrK/mQ5B1IUxGSWcTSnnOMFWjJLaynSNVFq7qC8bkAsxNToQ900hNoxvCBKlp97mMrwc5pG0atxrzbeSmWjj8pG/20CoSZcI6SmVazW+NQIBEEs0b7tuIKtiTq2JFSy+bj2rnx8XLOMTTFaPo0vplRdjVJdQ+lDolDXIK9cRKGuoai8hqjjeRSrjMjVBmRq4xNFoTaiqLgzT7p9a3xRMFGiNiFTmynRWPnRlmNcXk0MggAEBAHZEoEw//iyyVWANvcZIpM15Fe5UFhFASCzuimxupBavUhsPiTWQSTWQaRW7wKLE/siJVY30iXIrG7kC897woLAS0n4GCVWHyVWT/h9XqQ2PwUmD1HpWvYlFCEv13JyYiJcllfswfwUtlpWmu9CgGv4PNG5NuS1gyhqxYlcWesTxdB9oKgdpPQhWM057vcYMquHhIoTbDuQTE9nN0trGwiCgMU5gLGxi+uzoWVph09SICjN3ZSY3StXGHQOE5lhILe6R5xIHbcLhJUm44olqBrFrJgKhx910xBap5gOqrZ7Udu96Bw+qpqG0DWNoHYMLwSpqu1DqO1+sZLiLcGgorfiDgKh8e7tuR0/6kYf6pUEwgLieDw1AgFRfO9N13CgqJH9hfXsK3Tclahb2JHVQGppHV3eUXq8Y3T7xuh6hHR7R2npHyZXZabdM07v4PgjPf6D0OMbp8c3cUce9Rg80Lj5Jh6Kh2/D+D3OMU639/PlSV+De+Ido8c7To93nE7vOB8dKuTKarIY5gWCfEEgiM/d+u06CAQR6Paf4kBaJQeyrORXDSA1uZCY+yg2uylcwCVGeJs9FJtdSFag2OyiaAlSswuJKfy8yb0YFT4fLW7yhB/3kG9wEytt5OPDhcSkSdDWmDl5+jQIj2jSEliQFgICk9fmOJxlpKTWS0nYGyK3ir/fD/Lw+x6Yexxftgpue5/VQ1S2heiEHIZ8vgWBMF8CeU6AgZGLVJrbmLhwY1FIPU5tMH9RbhEIt1YXvFUgVDT6UTcOh0sf35lbs0+WCgTxpxj0qWocQjWfrdLgQ22fL6c8REU4cFbZMIzSPkyZfWQBpX2YssZhyhtHqHAMo3YMoWr0U9E4KAoK+/LSzBXh89+NeYEQtyAQ2qluGVqCWK3x6REI4kdRdF4NmdVesqoHyKoaIPsuZC3DRWpFDxpb18LH1/2I/1UhCNyYncPmbGM6MF8Z5uGCIR+We9mTbt+jWIJ82PM/9o+iFexJX4P7uU4B4T7SHFcrEALzzwkCZyevUaxtYeuRIvZlVJNa0UmewUOh2UuByU2BqV+M/ja5KTK5VqTgFoqMS58Xo8cLTeL6eKHZQ4HJQ6a2lyP5tXwUXczuo8Xkyyqob2zk4qVLd75hHuTuERbfJiAQECBfbSdb14vEEvZoWDxIrfdHicWD7CFY/Tm9YoreKigw+fjocDHFchWfXbyw4mAIwLlLs1QYmxnwnyZ42yA/DluyxGDqosTsvq264FKBkFPdI2aSNIiT+d1QLck8WYky++Ayyu1+VPZhyhqGKDIOkF7ZQYzUTmRGDVuOq3n3SCmbDskXePewgs3H1ezKqCa2xE6a5gRFJjdl9iEx46Rh8IEFQqykjnd3pyOtbqeq2b8EcUyeOoGQW0NGtUec9Jds8bwSWfreJfSRqhIFwqO69VYSCddn5rA62ggIi4tqT5IH6cPT1sbH0YcnbU/6GtzPGM0FQxxKu0+BIFtBINxt8OdCAsOnJ8mRm9gWncuHh0uIzjWTVtFBlr6fPIOPAqOPQoOHQoObghoXhQYXhQa3+LfBTf4SCgwu8g0u8o1u8oxeck1eMqsHSFF3cqS4nq1xCt6PymZPbD4FJRoMJhtj46MEg2K0fSjc9sU2P7pbRyDE0Lkr7EiqpMDkE4WPURQ/hUu4kxiap9h4LwZWYPlr7nmOsNflnu0Itzle0syeY0XUGEzMzc3ddRxm50KYmnqxNPVwc/ZWX83n/a8qHn9O4I4CYb7U9FKBML/Xwt0Q01NXQhQIqvDfZfYhlA0jFBjcHMi18HFcGTuSdUTnW0mraKfE6qHSOYa5+zzW3gsLWHrOo2kZQ2Zxkapq5UCemR3JOj6KVXKowEaBwYUyHKRa0TC4cL67UWEfpMLuJ0ZSz6bd6UgWBMJQGHFMUpWOp1IgZFYNkKm/O7cGLKaqutHUdn5+d5kwn8XQtpbFsGZfThNgLihwKE15fwKh5BaBsNp/jUAgwOnTpzE3dhCfJWPzoRze3ZfLL/ZJ2H5cQ3S2hSRFC6mqLtLVPWRU9pKl7SNL10+Wrp90dQ+p6m5S1Z0cL2tlX76VLUla3jkk4e19ebx/IJdP4wpJzS2lvFxDU1MTp06NMTd3c2G3v8dhQQHKa7s5qmim0Oil2OgJe0sWWRAOD4rJRZFpYAmuhzveHZCEz5Wu6WBHnJQ8aQVjw35YxViKSw7nKa+2M3H+sngrCfC4nH13EwhVzcPomobYlV5DdlW3mDWy6oyOFWjwhVNWfZQ1DJKt62Z7op7IjGpyq3qoahW3L7d1jlPbJWLtGsPWNb4i1q5xrF0T2DonsHRMUNU6Qba2i8i0Gj5JqiJb20PZPTNl5hmirN7P4WI77+xOCwuEIarCe6LMV1xMKXVwILnw6RMIq8pgcC0jtaILTW3HYxEIgZDAipW+1mzNvsAmhMSsi8PpZY9HIADhSTpESAgwfvos3W4fVbZWEnIU7IzJ4s1PYvnZ1kRe25rMz7el8FqYn21N5rWtyfxsSxI/23Kct3Yksu1wNkcySskpqURWrkNXbab9RCenTp0mEBDD5EJPqIjJXAhiCg0kKtsoMHlu49aCOvfPLd/8jbcX6XlYCo0eikwe8qr72X5UQXK2jCZnM4QCq7/oAlyZAYnagnv04grem8/PHotAaJj/Xay1oagf4tMUHTsSK9G3n8HUeYqa9hGsHeNYToxibh/B0j6G9cT4ynSIPy3tY1jaRkROjGE5MYahfQRLz1m0rWf4JEnDrrQq5LWrSVVdEwiPvolrAmHNvtwmhCAQhEOPUyAsawACAiECgQA3b05zafIzJsbHGOj30dnRj6OxHUdjG/X1TiwWO432VhyONpxOJ93dnQz09zM2MsbFi5Ncuz7NXCC4mi+2j8kELtyYJU1Zy/4sC1m6fnJr3ORUu8mr8VDw0IhLMYu4H8ExF8mvFtsaL21mZ4yUhEwZFpuNq1cvrXij3H0oQly9GaSubRBzUz+XbwQei0N2tQIhU9eJss6zsLPifVHvQVnnRVk3TFGNh/0ZJvJ03VS3jWNsG8HUNoK5dQRz2yim1lFyy+vR2l0Ua5vIKrVQWdeHsdWPscVPZV0fCQU6ijQOpFXNyKpbkeibMbaOYmodw9Q2iqltFGPbKLrWCTJ1XezNrKbI0Iui1nuXdvpR1g0SXdjAOwtLDGsC4eGauCYQ1uzLbU9cIIj5Dndeyw4JIYLBIAIwNzdHaIXZfyGwQmChIMjyBj259UEBuD49R5mhlc1HSohM0ZKobCdDP0C23v0IcC2Qo3eTrfc8JG6ydQNkVPZwKM/Gx4clbDmcR2ahgro6G5evXuF+cj+W3R2CuPTiHrlIWU0zpyenCX7Ol+WxCIQ6L8q6QUosfqLSaii1uKhpHsbUNoqhZQRDy2iYEbSNHiKP5qMwNHMsv5wjmXJ2xmSia+xFXdfJjiPpRMZmkFRUSUymnNxyK+/vSUDfNBhORRylumWUqtYRqlvEQEtJTQ+RyRXIrfcrEIZXEAiNHEhZEwira6LAjZkAtY72NYGwZl9Ke2IC4dYp+05/rybK8otggUCQfv9Zskqq+Dg6m59/msY7+wp5/7CM96JLHph3o0t4fZ+EN/YW89EhOe8fkj0EJbxzsIjXdqbwi8gUdscXkJNXilZvZMDj5ubs7COI4RAL4Jy5NI3K1Eqn+ySBRf3wyG1WAIWxE6nRteIuh1qHn0/TDGRou8JFqlaqB+G9B4Mo6kY4InGSIGsMb929lGH0zhG0jkGO5VcSl1XO5v2p7DmWx/bodKKOFZGltFBR282BhHw2R8VzMKmAo9llFKntbN6Xjt7hpdrpDzNElXN0Ab1zjJh8G/szDZRZPZTV+sOC4FYWBUJxVfuK45GssD+dQYpPoUAQgAtX56iqO8HVm4HP6Sxr9qtqjyte7q5tePIeBO4YPHi/AxQKiUsV8xYIBAiFHl7Vz8zMLPBwJhCcC3Dh4md0dfdirnOiUBuQlVc9ECXlNUhUNcRklnIgsQSZquaBj7WIFrWuBmttAydOdDJx6jTTMzMEl5U9ergxmBd4N2cF6tq8GBv7uT4TvA+/xOpt1QJB0yW66B9AICjrBimx+tl6XIvE6LptHwRt0zDaphHUDT4OpSvZcSSTxCId0alS9icWk1NqJVVaQ2V9L7tjM3nr4z3EZ5dyMKmYuKwy9h4vpqK2/5a2jyygc44iNXt5fWcm+Zp2Sm0+FCsgt3mJLqy/p0CIXhMIq7LZQIhMuZHvvHuYmsaeWwvOrtmafeHtiQuEU6dOERMTQ25uLpOTk8vEgiAICwSDQUKh0AIL7Qk/D2C325HL5QuPKZVKXC4XgiAsHPdWlh7v1vPOP15RUUFHRwdpaWlcvXr1AXu61PMhgBBECAYIBALMzc09FC09furbPczNPfyxRAIL4xAiyGIh7UfsQhUEhBBMXLhOulTHxWtzhIRHq5xXIxB2pFaTrukU9/CwepeU/p7Hc1cUNh8Ss48PjpShqPXfVtmwMlwNUWUfJDa3kl1HC8hTO8gpr2NnTBYfRB5Hom9GXdfHT365i7c+PkCW3Eqm3ERCgYaK2l40Dd47V3ZsHKLcPsLPtidzrMBAqc2zQh/EwlkHC+p5OzKVYv3KAiFlTSCs2oICSPXt/OnfbaPdM/mlEghPw7fXz8Oe9n49be174gLB6XRy8OBB9Ho9BQUFXLp0icuXLzM3N8elS5e4ePEibrebgYEB5ubmOH36NB6Ph8HBQUKhEH6/n+7ubqampqivryclJYWBgQEmJyeRSqUMDAwwNTVFb28vZ86cWRAaV69exe12MzY2xsTEBIFAgDNnzhAIBBgeHqavr49Tp04RDAZJTU1lamqK9PR0hoeHH7Cnj94EIYgghDjhGsPe4Zt/cBkriaJ7s3iOEOENYJhfHHgUDV/+uyDAhcszqC3tdHnGmAs8aoHQcUeBoHH42ZlaQ7qmE5lN3NvjvgVCrQ+pZZBtCTry9H2UL0t39FG+gJdUhYUjuWpy1U2UVLfy1/+8iZisUnLK6yiobGLr/lT2HS+iWNfCrrgCth/O5miBFlW9C1WDD1X4WIs7gfootQ+SX93La9sSicvWUmpbqQ9LBULaXQXCoZQirq8JhFXZyNmr7DiUy+WbIRAelZftyVswGFxShv7LYSFBIPgIPMqfpwUFmJ4TuHnfBB+SEDdnQwRuCQp7KgTCJ598QnJyMiqVCq1Wi8lk4syZM2i1WuRyOXFxcaSkpNDc3ExsbCy5ubnExsYyMTFBW1sbBoOB3NxcLBYLb731FmVlZaSlpVFQUEBXVxfHjh3DarUSHx+/4AGw2Wy8+eabtLe3s2/fPqampkg2ihnZAAAgAElEQVROTubcuXO89tprVFZWEhMTw5UrV8jMzGRmZga1Wo3FYnnAnj56E4QQISFEu2uMhg7vFy4uA1goWhUCZgMBHJ1ujPYubswEl8WaLPUU3Y+JAuEEUqMLnWMYnWO5+1/dOMSnaQbSKjvC+3x4lu0Lshrm9wM5KnEQnd8gbs5V50FZ70NZ7xWzHOo9yKz9fHykgP1pSpKK9eyMzWHroQze232c7YdzKDX3cChdya74Aoq0LRzN03E4U0WO2oHU1BvOmBAprfegrHdTWu9DVu8nMk3L25EpJBTVILe6F/YkERkM71Xi42CBnbcjMyjSnVgYD51jGH3TCFrnCMkKB0dSpFyfXhMId2gWIAZPC8IcI8M9SIuS+eziKcTi8qFl9+0XwpY1WGD66nkabQq87iYCgZllTz/d0+u8LV+sDAGBYABXv5PG2gpuTl8Ji5+np/jyfAs8E+fZm1bJ/gz9/ZGpZX9m5QNzIEtDdLYWlamNZRpKgEBQeLICYfv27cTGxtLU1IRKpcJgMHDq1CkqKiooLS3F5XLR1NREXl4eubm5nD17FqVSid1uR6VSkZmZSVRUFBaLhYKCAiYnJ4mJiSEjIwOHw8EPfvADjh49ysGDB7l27RqhUIj6+voFj8XevXuZmpoiMTGRc+fOERUVxfT0NJmZmVy9epXs7Gzm5uYwGAxotdoH7OmjN1EgCLQPfDkEQggIhARcw+fQ2NqYOH+FoABXrlzh7NmzDxQD8tgEgsWN1Oxjd7qB1PI2ZFZ3OEbBF/7pRlHrRmLqQWbpJ0fdjMTQjcI6wOEcLZGJCsrqfGSUN3JcaiZZXk+a0k6aspGU0gaKjb0oaj0o5uMeat2U2jzIbD6OSRt549NUtsfkklvpRGa7tY2rEwga5whJawLhXs0CIBCaxddnwF76bdyaP6Ou9G3GR/sICMFwy5+OiWf1JgrwyYsnaVBvpU/1n3Aq/oruJikzN6+LPfkCKZ8gQYTwvrI3bl7jRJOEFuW36FH9N+o1kVy8MEHwUe3F8whM9M4KdPnOEFPQSJrWRap24D5wPRRpOjfJmj4yVY6wn3gxcvyJC4S0tDT6+vpIS0vDYDBQWlpKVVUVJSUlC3EETqeTnJwc8vPzuXDhAkqlEpvNxuHDh7Hb7URFRWE2m9mxYwfd3d1kZWWRn59Pe3s7kZGRnDp1igsXLnDlyhW6u7tpaGigqKiIa9euERsbi8fj4Z133uHs2bPs37+fmZkZsrOzuXbtGsnJydy8eROZTEZdXd0D9vTzMPEGP+Eao/6E5ym51e/PbhUI82sOF67MUG5owt7SRUFBATExMcjl8vs+/moEws7UGtIqTzyEQBCRWjzk1vSyJV7FkcIGikwuSmp94WO6kVpdSCwupFZXeNvzRaQWN5IwUqsbmc23BC8yi0vcwXR+acPio8jkYX9mNW99ksCW6CySS8xILR4kVv+DCYTmNYFwrzYJBJmevU67Q0qz/L9y0/wy2CK4XPMNHCXfxtNjIRCaW4ja+SKYgLg8MjbUQV3pa5zX/hZYIghan6dX+R9pMSVx7eoUX6xq0gKEAly9epEmYzw9ZX/MnHUDWCM4o/8mNuXPmRjrEYvoLVlefXKtFT8Ju33jxElqydL3kKXvvg96WL4Xyf2RXdVHhraLHFXD8kv8pAXChQsX8Hq93Lx5k56eHqamptDr9dTX1zM6OsrQ0BBTU1OcP3+eoaEhfD4fMzMzjI+Pc/bsWex2OxqNhr6+Pk6ePInZbEaj0XDu3Dn8fj9TU1OMjY1RVlaGzWbj0qVL9Pf3c+bMGUZGRgDw+/1oNBrq6+uZnp6mp6eHYDCI2+0mGAxy/PhxLl68SFJSEhMTEw/Y08/DxJv61OQ0Jz+7/sX5311it6auLuzpIQQJBAWGR08RCARwuVzExMbc9/HnwgKhJCwQtE13FggSi2thkr4f5gWCxDyAxOqiwNjPJ4lqfr4rl+TyToosPoosHoosHootHnEDryWIG2G5l5x/6QZZbqQWDyVmUURILW6KzV6Sy07w+q4cXt+exNboLFJLLJQYXUitvhVEzCAl4c27DuQ3rAmEB2gLiMtcV6bO0qiPxq36U4K2F8EaIWKJYMb8Vdpkf0ZXYyGzc9NPuTt+8XM7ODeDp0tPs+yvuWr8daiNWOiXYHmeEfW/prb8Qz47NyKGNj3Zhq9gyzfJAggFglw868eieI8xzR8g2DYsuVbruWr4LezSv8bTXS0uozxxgSBat+8UccUN4fu57x4svffv9dpbX7+c7KoBMrS95KgaF71F4Z9PVCB8EczpdNLX10d5eTk3b9580s1ZZoIgMDc3x6nTp1csIvVlMKPRyKZNm6hQq8WgybC/YTUOwjkBlMYTSKr7b/MezAuEHSnVpFS0U2zupzi8tfhDYRKJk9TyRmQGr0fmszvDQrKqi9xqN0UGD1Kjm2LDAEXGAYqMLgoMLopMHgqNbhGDmwLDAEUG8fm8qn6SyjrZkWLiZ5GF/HBzPB/sTWFfopQ0ZSMS053aI25/LjW7kZo97M+rWxMIq7Z5uRpCEEKcPT1EbdnHjGn+5bJJdDnr8ZX/GxqNx7h0aXKhL0/bf6bofg9y7foVWhsK6JT934TMG8Esip1bmaz+bRoUP2fI20kgFFw4ytNgwpIFhRAwFwzi93ZQV/ozLlb/xoKAu/VazVlfoEP+n2lrkHD9xnVxyXZVnyqfRx9A9CCcIq64Ljyh99yFlQTC/bx+JYHQs8SDEFpo2JpAuIcFg8EFnkYzGo28/vrrzM4+6Q/1R2+hUIiZmRmGh4fZvHkLU1euhrfWFWtw3qs8zWoEws7UmkcrEMIUmQbIq+7hUIGZXx4o5PtbUvjxzlzePiDj4+Ma9uXWclTexnFFGxmaXrJ0A6RX9pBQ2k68rIWonFo2J2h5+2AJP9mZxfc/PsYbO5P56EA2uxOKSCg2UlDdRbGpH4n5Tt4PDxKLTxQIpjWB8ADNgJDA4EADDbLvcanmm2B7ZnHSWQHB+gzj2v8du+pjzp8aDmcFBXlqPiUFEIQAly5OUK/dja/yXxOyPrvMG3LbhGpbxzXD12mW/gV97ZUE5p70/bHURBEXRGB6bpqutgqcsv/BNcOrYF23skAI9zFkeR6X6t/TUHWAi5PjBJnjSVTEvF0g3P1ez7yFe/9v9JOlH1hGtt5FdpUr/LcrLBDqWfx0ZU0gfJFNEAQmJyfJzMxk7969j6CQ09Nnp0+fJj8/n5SUFDErxTWMydnP1HRgVS7BeYEgNQysWiDM7465dKJ/OPrJr+khpdTOwUwt22IlvLM7g599ksKPtybzw4+T+P6HiXz/g0S+/2EiP/w4kR9tSeSn25J589M03tubwbbDeUQly4nN05FRZqdA30uR0UeR0YckvNX3yucWN/GSmFxITK5VC4RrN570vfTkBIIgCAQCAYJzM8zOTtPZJKVZ8f9yzfzK4uRiXk/IOD/5rCNoWIdgeQbBvC7smo9gUv+71Jf8iBF3IzM3Z5ibnXuiXzJCoRCzszMEgkHOTAxgL32DM/rfI2TaAKYIQuZ1hMzrEEzrFj0J1nXLJteg5WX6FP+ZDmsqV698RiAkhFMin8wMEAwGEYKzTM/c5MaNq9jNaXQo/jvTxq8hmCJErOsRTEtFwTqCpnVgC/fNFsFJ3f+BWf5Lzpx0EQzMPdadf+F2gZBdNUCmdv6bfx85VYvLCJm6XrJ0vWRou8nSLS4hZFf1k6Gdj0UQX5ep6yNT20O2vo8sXe/Cc4s/+8jQ9JCp6ydD20eOyr58Rl8TCF9sKy8vp6enh/j4+C+lByEYDHLhwgVOnz7N3NwcAcA7fpFyQzPjZ6/c8/33IxCKTP23bKHt4vYtte+fYqOLYpOHQqOLQtMA+VXd5OtOkKlqJEVmJj5fT1yujtgcLYfSVcRma4jN0RGXZyBR3khmRRu5uk4KanrDyxceJCYPxWZP+HcXknsJBOMAEqOLfbm1vB2ZvoJAGKbSObwmEIDJyUna29tpa2vFoNpPr/JPuF7zKhfk68D2LNc0EZxXvkh/RgSn5OuY0ryIO2M9pxSvMFwUwSX1Bs4pnseXs45r5t/HKflz1NKjtLe0c+rUqScymV6/fp3e3l56e1yYDVJsJd+nK/vXOCl9lrOyjVxUPsuI9Dn8RS/hSo8A6wtM69bTlxbB1cr1BKvWcaUigguKdfhyNzBQ/p8oTt3E0NAQXV2dT0T4hEIhzpw5w2eTk+iqNaglH9OQ/e9w5TzLlHojY5INnC5Zx1nlqwxmRYDtWa5r1zFU8AI9qRHM1DxPsHod/uwIJmTPM6L6HazF38VZq8I10M/58xceW19uFQg5VT1sjlcQV1JHVHYNyaoWdqVWEplWySdJ5SSWNvLhoUK2x8vYGiclQWEnXtbA7gwdu9N1pGtOsDtdR0Kpg8OFFlIrWtiRXE5keiWfJCpJLm8iSekgKkPLoTwDmdouMrW99xQIKyW6rgmEp9Ru3rzJ8ePH2b9/P3/5l3+J1WoFeOqqcT2s3RpAJAhw8co0FeYWmvuGFm7ZlYKs5wQoNZ6gyDgQrmi4vAphhd3PjhQDyeUnKDT0U2hwPSYGKAzHGIjCYSnuMPPbeM9v5b1IodFNQfh1RUY3xbc8fyf25lp5a3ca+br2ZeOgcwxT2TRMoryRw8mSX0mBMH//jAyPU1CQz/GoH1Kf/i+Ytf4G3rx1DOY8w43ql/AUbqAl5UUajm7AX/Q8E4qXsRxeR2vKV+lKieBUyQs4jr5I+a7naE1azxX9NyjZ800SD76J192PEAo83h1nBYHLlyYxmQxUyFPRHPtjrph+j+akZ6k7+hKNR59jQv4V+rM30pf9NbqSIgiaX2G8eCPVn0bgynyWqcqNjEue4bTqt2lOXMdp9W9SeeQbZB/+LoqSHK7fuA6h4GMqlBB2ggeDtLe3IVNISNn1X+kq/CZtGb9GXWwErrwX6ct6Hm/h16g++BKqTyPwF27gvOplutJeoCk+guv6V7mueRHrgQ00JX0df9HzDCl+k6r0P0eSt5d+j+dxdGZJjxYFQp6ui3d2Z7D5cBGRiWUckzaw+UgeHx7M5L29GSTK6zmcb+D9vensTirlYJaON3cmsfN4CR9F55GtbmfLkWI+is7lw4O5pJc18YvIVDZFpfKjD6M5WmwivtjKR4cLOSatJVvTSZa2hzxVfbhFty8xXLk6veLyy5pA+AKYRCJ5JPtOfBFMQIw9uB6AurZBdPVdXJ0Wc55vHYF5gVD41AmERQqM7nuy8Pr5IMZbWeW59uRYeGt36m0CQdsojs2vskAACAbBYrYQ9d5/QXngt+lNj+BkyW/RFBvBrOnXcGVE0JfxHF0Zr2CIfp6+nJcYkn0DybYInKm/RU/6c5yWv0hzwkb0+79GW+pGPqt4jtq4Z5Dt+11UeR9x4eJFCAj3JRLmS8Iv3WtmdaMo2ujJUdKPvUvJoT9mIPc5Zg0v0RCzjsbj36Ah7nmGpV+lM30jDXERdCVHcFn9FUYKNuDO/gqDuS9wRf/reLIi+KziJc7JI7iqeQlnbASt2d8kZe+f0linYy5w//ogEAgsVLe9HwshMD0TpFyWS/aBP0cTtRF/8XNY4l+iat8GGuI2MlT4Kr68F7AceZWafS8zVvwyE/KNNMZH0HzsWc7KnueC4lm8+S/jyvsqp0o2MlYQwanyV2jI+iY15dFMXp184C9cgUBgoX+r6Y+wRCBkVrTy+vZEPtifx+bDRWSUt/HxkXy2xxWyI05CcqmdbfEl/OSjw2yPKeRIXjU/3RLD3hQ5H0XnEF9oYuuRYrbHSvjwQCFJJXY27clg8+Ec3vo0gQSpjcN5Bn62PZG4IguZlSfWBMKX1eYzGX61bDHW1jd6EaXByci5y3f0INxNIGxPqiaprJ2Cmj4KagYeO/k1A+QZ7s4jOdeaQLjz2QSB2bmb9J6oRJ36VzQk/SbNyV+lNysCT/6LtB5/gbNlX2Mo/xmG8p9hpPir6CLX0Zm2kSHpKzQkvExr6tdxZb+AN2c97pyNNMQ9R3/2Bia1r9BwdCPGg6/SkvX7WOU/ZczXxv145U+fPs3IyAitra3cuHHjbsM2X0oEQRCFxdkJD3r5DqRRv48h+lU6EtZxvfor+AufYVz2Kp3JzzIh+yrdaRsx7X+G3uyXuWn8Gv1pEZxRfp32YxEIdb/LWEEEAePLzOjXc16xEVdGBKdKX6Q750VaS/4LHfZ8bkzfe9lv3gKBAL29vQz6BhkdHb3rtVn6M0iI69cnaa7NQXP8PzIk+0OUOzcwkP9rtKS8RH/Oy+ij1jMh+zXaj0bQkfbr2OPWc1K6gbOKjTTEPEvTsVe5UPYy5+QvMZS3EXfWes4qn2OsOILp6leYMb5ES+7/hrV8O+dP+1fdp6V96+/vx+VyMTw8cs/XhwSxxsZCDEJlO+/vyyEyQcmmPVnkV/ex/bic6JwqolJVJCsb+fhIMT989wDv7k0npsDIu/szee9AJp8mKDheUsfmmGK2xknYm6ohUd7I+wdyOJBVyZbYYnI0HcTkG9lxTEGmupUsTceaQPiymiBAMBh6vG7LJ2pisuPShKTPLk9TaWmj3X1aLH4StjWBIDJ/HFEgpJCva1sTCEts5uYNmm1ZdJb+X1zQ/zq9qes4JXsRf14EQcuL+AufpzP1Bc4oNnJeuYGzyudw5TxHY0wEU5pX8OasZ1T2MuOyZzhXup4zimdxZa3HmxXBxbJnGJF8BevBdXQnR3DV/Ds0lfwFvR1WZmcW44aEW1j62PDwML29vVRXG7h58+ayPi19z4WLl/hs8or4OR0IMjzYTq3s20xU/g4DOes5JXuW84p1TCqf41JpBILlWXxZEZyWvcSYdAPNCeupPbKeS5qN+PMimCh5AW92BFhfZTQ3gqGiCFxZEUxIN3JSso4p9QbOl0YwXf08/oo/pE57gMnJi6v61j07O4vNZsPpcOByue58bWZnmTh5itm5AAIhJqc+o04TyWDFH3FS8Sxn5c/Tnf4CtiPrOFX265yRrsOdvY6zimeYKIxgtOhZXDnrGCqI4ELZs/RlvYQl+nmGCjbwWfmLeLLW4c+P4Ir2eS4qIhjKi8CfH4EvZz2TNX+AQ/ET/D43wWBg1fPczMwMzc3N1NfX4/X4lj230jHOnDvH1OUpuuZjEDQdbD5UyIF0DbsTyzmUb2FfdhX7M/UcyNSyP0vHoTwDnx6VsCeplJgiK6mqFnalqIjONZKgcLI/u4ptx6W8EZlCTJGZY7I64iQWojJ1JMgdHM4zcSTfzNY4OfHF9WsC4ctogiAwNHqWAZ9YwGmldfhfFZudC+I80Ye2vovLN0RX7GwIFKZOCmsGUDUOUt7oR9U4hKpxGFXjMGUNQ2xLriKh7AS51S5yq13kPXIGyKvuf6Lk1vSSW9PLrmwTb0Ymk6trRdU4iKpxkIrGQTSN/l9JgRACLkx+hq0ykuGKPyBkew7MEYQMEWJGgnk+zW892DaIke/zNRBszxCoCRcUMkYgmNaJ0fLhzIaQMQIhnA0gWNYTNK4nUC1mBsxYXqJL8R9osBbhGb6Ad+wCrvGzy/CMn8Uzdpbx0xcZHR2nt7uXrhMdTEyc4syFKbyj53CPnsM9dh732HlcYxdJLnXyxp58GrrGaG3W0yL9M6ZNryDY1oczLNaBbT4TQ4zgF0wREG53yLyeaf1iu7GtF/sT7vNin9aDed1iSqQtAsG2gZOa36W+/AMG3F48o+fxjJ7HPXpu4XfP6Fl8o2cYHD3F1JVrtLa20dHRQVdvL+cuX2Nw/Dze0XPLaOo7yT9+eIxsjZMen4fasnc4U/UvwsWP1oXbGL4W5nUIBvF6sDRzwSRmlsz3aVa/Lnzt1i2OSzhDRTAvgm09102vYpf+d5qcWlxjF/CNnbutjUvxjZ1jamqKEydO0NnZSW9vH5OTU/iHT+EePkf/yDncI2dxj5zFM3oOz+g5UqS1vB2ZQ3F1l1goSddPakUX6ZVd5FaHsxPC2Qs5Vf1kaLrFn5Vd5Fb1k6XrI1vfJ2Y26PvE7AZdLzlVfaRXdpGl7yFb30OGplt8jbaLHF0XWdoOUsqaydL13DPNcU0gfOFMHPXugWGaOpfu5vgEm/QETRDEiuaekxeQ6+o5/dl1sdSyqZ2iml4q7YNUNPoXxMGiQNCTUN5ObnX/l5bsmj6ya/r5NNvCm5FJtwkEcWwGf7UEgiCew+MdQJPz91w3fR3qluTJ25ZgiSBUHcGNime4pnqG6crwY4YIgtURzOojCBqe4WbVi4xINnBdv6Ry3/wxluXhr+NizR8gzfkYvbULq6MfU9NyzE39mB09tHX7cLZ2oK2qweX1cvLMebrdo5gc3ZiaejEs0EdkqoF/+4+7iMvTIy+IYkz7xxAuMbxiO+YfM0cwrdvAudINTKqfQbBuYEYXwbXK9ZyTryNkWnf7e1dgzvpV6kq+hbS8DJNzYAFzGEvTANamfuqcvYxPnMNqttHU1MTYydOMn52i1tmHzdGHxdG7gNzUy3/43h5+uD0Lhbqcevm3uGn5ymL65Up1G8wRy56f0UUwpX6ekaINBIzPrTwWS6ldfF6wbmBQ8ycU5+/F4OjB7AxfI8fKWJ39jI2PYzAYcDgcjI6Pc/LMZ9gcJzA6ujE4ejGFMYev87bjGv7477fycZyCaEkz2VUexAJGfSQom0lRtZNU2kx+dT/HShpJq2gnW9dNjr6XBIWTlLJWjkrtZGm7SZA7SVW1k1bRTq6+l6MldlLKW0hUOMnR9ZGocHJc3kh6xQlyq/rIreojp6pvTSB82Wx6LoS5aYB8bSe52g409QN0+84uqQL/K3pVhBCXr0+jMrRg7xunuOYEBdW9qBt9qO3DKwiEKo4q2siu6g/T+6Ujs6qfzKp+dmZaVvQg/EoKhHCprblACE9fI42K73DF8I1l34qXCoS5mmdpT3oW0771nJS/wpzheQL6CK5XvoA36xkuq79Ob+arKHc+R1/Wc3edSE9q/yVW5btMnBwmGISQECAkcAviZmyh4BwtzU1o1GqcjiYmxscJCSGCQoiAECAghAgIIeYEgfpOPxWWLi7PhDh37gx1lbsZqvwjsK5feUIM9zVg2MBg3vPYY5+jOT6C6/oXuKF/jvHi5/FkrAPTcytWI1wYK3MEs+ZXaJF/i86WCm7M3iC00DYWCIYgFBIIhUKcPHma+voGKisr6e93cfX6DQJCIDwWi1y8PENCSQ3+U58xO3uDjuZympV/zpzl5dsLVq1YNXEdZ2URtCa9SPmnGziteGXlvtzar/B7Byv+DVbtfs5eOMmsMLd4Xe5AMBRieHgYm81GRUUFLlc/MzPXCQlzC9crKLAMU7MHlbUTR/9J4qR2sqtc4Um7kz2Zeg7mVLMvXUu2pp1N+3KITC5jX4aOjIo2tsWXEFdkJq7IQrqqmU8Ty9gWL2N3cgWpSgdb46REJquJSq8mV9vDrsQyPjkuJ6aojlx9Lzn6njWB8GW0IJAoqeOP/n4vv/d3+/nbTQmcnZxdcjF+Ra9KuNvTQYG6Nh+fJKjI0vdR0eijonElgWAkpqSNTG0fGdo+0h85/aRrB54oGdp+MrT97Ei38GZkCjnaViocQwsi4VdRICyEvIVL7E5MDGAr/QUntf8KwfrMbQLhpm4dHekvUndsIz0ZGziv3Mhnigim1BsYzI3gpPR5mhO+QkXkS3SlPSu6qG+ZeILWDXhUf/i/2Hvv4Liy/b6TT09PfrJlr2yvXbZ3t2R7S1Uqe2td65VLLq3W0lrB0pOenp7mvcmRM8yZIAgCBEiQIBFI5JyBBjojdjc6ZwCN0I2cOiKTnBkOOYGZALo/+8dtRCZwhnneYX3qNrrvvSfcZv++53d+5xw61Cf56utLRCKLCH6vB0fx371zly+/+opPP/+M/sEBQpOT969TBO6EYXHNrW7c+oZ2Ux6Dsj9g0fgPH2gQr7f8iIH8H2I++yOcaVv4uvkHhE0/YqZ2CxHLb9zbU197tPwaX2n/DXbxa4T83YQ3EX0ZIczVq59z+84NvN5xenr6uHnzDrC6cdIy4QjcXVoiEhYWVF5cWsQ3bsVa91O+0P62MOyzsU6W1WPEtAV/+RbsGT+mOenHTNb8aP05DxA9C6Z/gkf8X+hxlHPjzjXCLBB55NqtgifzypUrXL9+HZ/Ph9vt5u7t21Hjev9nvbAUZiECg/450kQ2SqO9+rzGHg5nyUirMXCmXENRQycfHcvjyHkRnxwvpKixl22JhSQWNBCbKSaj1kBclpTtiUUk5Co4U6Fhx4kS0mvMnKt1kC3pIKmwifdiM0mpNAni4EUSCOts1/eBRzXGd7p3hIm5a/zBm2n873+dRG1b/z17eX8v0kPa/PYSFCrb2ZHWRIlqEKUzgLLDj7I9QGO7nwbnBCfKbbyfUMObR0p5/Ugpbxwp3kDpOl5foUT4PKaYt46U8Gb0+MaRYl6PWeXNIyW8EVPMm7GlvHmkhDePlPBWjHB8YxMsn/9ANnH9uzElvBtTyuv7M9melE+5qnedQGh0+FE4/ZwXOziVU8O1m897z5FnP4thEfjqqy+wtp7E3/QfiFjXLz98V/sb9OZsYazsx0xX/yZXlL/F181biJh/zC31b3BJ8du0nfzH1O7/MeazW4TV+tYY1SXjbzAk/wO6bTXcvXP/RWce3SqPt1PAUniBO3fvMNSnw1n//3Hd8FvrDWO0bLe1/5CurB9Qc3AL2lM/4JumHxIx/ZBZ0ZbVOISNrnzTFjD/kPnW38Wq3M/lS1Pfekrg5q5bNV1LkTBffDaFRbGbz9T/djWG4L5egC34yn8dZfxvUXPoHzFQ9OtgXROLcZ9ls6/r/hkd4j9nfFDLwmNOLf22dQsDQ/5Z0mqt0e/zMIUtbuILmziWIyelVEOe1Ml7hzP5JCGPtw+lUahsZ9vxIgqU3Zwp15Mrc3IovYZD6TXEZUtJq9ZxILWa02UaUitt5IlkyOAAACAASURBVEq7OZBazdbjuXx4vJjClj4hPmETAuHa0xUIG8943pb7FSASZiEMhzKk/N3eXD67trimnV+A8j03VtPdMEiNbnKa+4kvaOOcpBuJQxAJDe0+Gtv9KOw+RPphylQeylRuylXd62ntpbzVvQYP5So3Fa29VLT2UtriobjZTXFTLzmyDs7VOzlX37FCtqyTgqZuilp6KW7tpayll4oo5S1uylrdlD5lylp7KWt1U67qoULdjdQ6viIOfiUQ1uYa4fr1a/Q5yvHI/oCbplV39F3drzFcsIVPZf+Yqcof8mXjbzNV+RtcFP/PjBf+gEDNP0GXtIW+/H+G8+wWlgyrBupr3T+nQ/KXTAwZCS/ehme05n8kEoZImMWlBSYDXXQo3+Cy+n8F84/WGfwbTb+JO/MHODJ+HXf2D7ne9CMW9P+IkfwtwvDEfbwHS5bfZEz5n+g2pfP115+vNRNPqS5CBhFWPRRffvkZNnUKY43/kTumHz/QIzCU+2sYUn5Ib/5vM1Z4H9GzXDfLD/hM/b/gUH7A7JSHcGSBMM9ilcj7C4S8xm4OZUrYfbqShNwGssV2didXkFjYzI7kck6VtXHonJTz4nYSC9vIkXVwNEfBiRIVR7OVZEqcHD4nJblUQ0qlnoKGbk6WtBKXKyOhqIWytqEXQyAsL2GzEI4QunSTsdkbjM3e/BXfgYmZ64zN3aBKO0Ke0s3wzB1GZ25+z7jG6OxXjM5+xdjs13x+ff268HfDwjTHsrZBFM4QSeUmEopN1Fn9KNp9KNp9KJ2CcVxG6QxsIITSIaCwB1E4gkjsfopUQ5yu6+BwjoqPT4h4/VAhHyXWsDulnj0pohU+OF7NG0dK+ThZzJE8Lan1LorVw4htARragygdARTtQZTtoadGw1qcU+vEwVqBcK7ewelcEde+B0MM96blvUKXWAzfZbRPg13yE742/IuVwLfrLVtY0v+ABfUWFnS/xmztFmaqtjBXu4Xr6i1cUWwhrP8HXJZsIRINRryo+h3M4q3MTw9CGCLhBZ7RkoPA8m+z0Hn4/NMQZskeZpv/vdCLXjaS2h9wrWkLt9p+nauyLSyqt3BXu4WLtcI4/MaYjDuG36ZH8sf0OmpZXLy7su7Coy3Bd08LhFkkDGEhruHm4h1cjhr6JH/CkvGf3lck3Gjewtctv8aS/sdcU64ZXlg3VPJDZpp/D4tyH5c/n1rXek8/bRQIwn4JxapB0uudHC9sJUfeSb6yi+MFLRQ195Ot6CGl2sw5SQcZ4nZSRTaKWvvIUXaRo+zmZJmeopZ+zonbSa21klJlIkvWSUa9k1SRlUxZB6UaYU+G1d0cn5NAEFaKWuLT67dIyNNS0uSmpLHnV3wnuilp6qGosYeChm6Knnt5nj3FjT0UNXVT3NRDlthORaNt3Wpzd8MgNrgp1wzS6Aghd06R29xHTE4LJeoh5I5JlM7gGiZpdARXUDqDKB2TKB2TyGxBSprcHC1oY+cZCSlVVqp0YzQ7g2i7pzH3X8Q6+Cm2gYvrsAx8irn/UzSuGRptfqo1w5wqN7ErRUxCiYHi1iEhD+fkSl5PlimUjhlB6DgDQj5O/zo2CoTvQwzC/XONrHRmIuEI01PDWOTvc0n1O6vR7Wvd7JYt6yLeV6ZARnd1DDb+Lu2tx7lyeY5IdCniSOQZ7luwblaTYMWvX/uKTmMWI8rfZ9H4m/cPylw2mtYNhtS8hctt/wqH9Od4R2wsLixElYGwBfuzsKeR5TVQIhHCkUUiRFhYXMQ/bKVT+ndc1/zT+w+J3DOTZPX1gvHHDCr/C72WfK5duxy1V9zPKfnUarVeIAyzvE1zWds4lW0TlKvHqdBMUKYeo0Q1RqnaG92RcYxSzUg0IHmEMs0YpepRytrGo8GO45SqxynTjFHeNh4VBCNRcTAcnS3xnAXCcrr8zS1Sq+3YRz7DNnTpBeIituELUeYFvuM9HRtwbmDj59+Ni9if+D1ffOxDl7ANX8Q2fImWjkkSzlczPDa+8pW9G44gMXio0AyhdAq9f4UjQK3Ry6GsZtLEXUjtQZT2AA3OEDLHJApngCaHH7kjQKMjiMIxSVHrIDvPSEiuNNHgCGHs/xSTZx6jZw6jZxZ970z09RwmzzxmzwWsfRewuGew9s1j7J3F7JkX6JvHNHABvWcemdXLicI2DqYpqdRNoGgPoXD4o8b8SbJWCIU2iKLgOoGQ8j0WCNGsBVsa/fPmlVkcTUfwNf4HwpYfrR+73miIooJh0fyP6ZX+3zhNedy99bVw2xdiJTPBmC8t3mKgS4RL9EfcNfzTB26HvPa9iOXXuKD691ikn/D5hYlll0FU8KyY1GdUh7WvV4dVP5sfwyH/hMttvysMjRgfXJ/l53XL8M/oEP0xQ91SFhZuPaeZ4vfzICwzSul9ELZpXv7urz//0YxEBcgL4kFYTpe/uU1qjRXHyCUcQ/MvIBfW8N3u5Ryap30Nzg2f24d/xZPAMTSHfWie1o4gCeeq6B8eXfnKLqwIhGHkziBKR5BGZwilY4p6+ySna5ycKLNQYxhHZg9Q1OJGaQ/R6PAjb/dRbw6QVGElpcqKwu5H2zuH3j2HwT2LoWcKY+8kWlcQQ+80jdYR9D2TGN2zGN1zGHumMfdMou0MYOiZwuSeweSewdA7i949i949g8Ezi65nFpnZz8lSPakiB2JLYNWjsMGQPy0aHYGXUCCMbeAJCIR1PcbohOEI3Ln5FZ3GPAZk/5VFwz96wHQ64b2b+n9Op/hPGe5rZXFxYc2NX5AUtYBLC7cJeZ3Ypb/kS+2/frAhNW0hYvoHBBr/D9pbk/jy6iXCkbUxP2E2NNxzS5FIhK+ufoq5IY5g038E048eKg6+0PwbHOI3mPK7WAovLvtBnkfJ7xOD8DRZFgiCSFjeKvpXAuE+2FeOc1FhsNxDjRr64YeLBfvQPPbBuQcKBOfgHI6BWeyDgiGzD83jWOup2CT2kYvYhuexDs1hH74gHEcuYB9+OMteEevQPPaRzeVrHpjF3D+DZXAWy+DsY5f1WbJOIGRU0T80cl+BIPTOAyjtARSOIHL7JFLbJDnKPo7mqUiXdPOL2HKqtWMoHD5qzF5OllkobulH2zuPoXcafe8MOvcsevc0ht5JZLpecqrVaDt9xJ4pJauiBaV5CH3PFHJ9H9sOn+F8WQPH0so4nVdPXGoZYq0Hg3sOXe80ut4pdL3TaHunaemaJkfRRXK5EbElgNwRQu4IIHf4vzMKR+ChvGwCoVQT7UlpxlZcpE9UIERW/xSMRoSFhTsM9ShxSf4H1w3/cn1v2yjEG1zR/Fva5e8Q9Hdyd/EOS88gEPGx07LvPBKBSJiLc+O0K/cw1/y7RMy/fo935I7xf6JP8l/pt5dw/drVlf9bEZZYYjH6pJ6faV1Oyx6acARu3vySHksR/bI/4I7xt+4jeH7EdPPv4WjYx6cXxgkTFgTCc3tez1MgvABBisvpRRQILY5RUotl5FQrsXiCOAbmcQxcwDEwh31gjnxRG4buAPb+WewDszgHBeNv65/G1j+DrX8GS98UjoG5+9JqGya7spVmywBn8yVkFCtR2Uaw988KAiOaj31gNsrcfXEMzmPrn8XsnsLSN02RWI/FM41tYHYF+8AstoGZFXQuP3K9B+fQPHJ9L43mfkGoDMxiH3xAXoNzKE39FIkNpOSLkeq6sQ/MRJnDMTiLY3AGx+Dcc8c+OId9cBbbJgSC3BFEYRcEwirCUEKlbpyfHa7md35ygn3nNEidIU5WWihudaPumULdM4W2dxpddxB1zxSanhC6rgBpBTKyy5soFev4+OBpKhVmTmTVom6fQOfy8s7OeJotfSTnVKNzjZFZoaRW1Ym2ZxJtzxRt3dNoumdRd0+h6Q7S2h0iS+wgpdwUHQ7xoXB4o8cH4UXhmHg49sBDeZkEQql6lHLNKFW6USrahslVdFOqWnatPkkPwhKsi2BfYnHpNjMBF+baX/CZ+n9bnV5n+QfMNv0edsUBPv88JERcRcIvQJ/6PmmljtHf7qUlvv7qUzrbUhmX/2fC5n+4Eovwjf5fYhf9Ob5hLQt3brG8+uTyTijhlXn9z18grKQIEA6zcPcm4/0qOuv+ghvGf7UmNuQ3GZH9Zzq16Vz75vKKCNw4tPSsC/3KCoTVlfseUv1o43/+zS3OVluwD13CPnhhDXPPmHkc0XzPlcjYdvAEh0+eJzmrAufANAbXBKYuPx2Ds1QqzJi6fJh7Aug7J7C5QzgHZjC6xjF1+ahUmDieXoq9bwqbJ4Rh3Tk+6lqcJKSVcSanhm0HTlAmNaJxjGNyh7D2T2PoCWHxTKGP3s/hmcLS7cfk8mF3h7B0B2gfmMHWG0TR1sXOw2fR2IaoVlqxeSax9AYxdE5g6Q1i90xj7PJhcI1jcweQqTuIP1NE5+AMiWklZJcpsPYEMXSM4/CEcLhnMHdNYHL5cXimaO+fxuzyUa2wkJonZmfMGSplemy9fkyucazuSWyeAMauCcw9IewD8xu4v7h5WtiiWAfnaWkPEZ9RzcDw6Mr3cTHCikCQRXvLMrsfhS2K3YvcGuJYsZX/8Foqv/NXp/m/3sggVTZAfKGWxs4gKtckatckatcUGlcITafwuk7t5oO9JzmQlEN2ZQs7jqSRU9VKVWM7zXYvMm0Pf/PWdjLLFSSeq0Cs6eBMgRiRuhuNazLKFGrXFGrXJBpXCLVrEoXdz8F0CaXNbpR2vzDLweHfwEaRsPHzDTxCIDQ4/MgcvhdWIJSohbXmS9VjlGtGSauycOSchINpYj6IyydT0vlkBMKGMtxvvDsSXuKLS346mmOYavo97pj+JaOK36fHkM6Nbz57MUXBA1MEwdyHuX3rOoPtIvqlf8It47/gkvrfYVd8zPxkH5HI0spmcOtbJXLPOy9Eii6ytLS4wPxkD075O1zQ/FuuG/813bI/ob+rlts3r70wpQ8TIcwiA4F50mrtlGgmKNGMP1VK1auUaMYoVQ9RrrQK5j4SDfT+rgIhQmRT818jkQiEowKhyoJt4CLWgfk1zD1TbAPz2PvnsfbPkFkqJy45k1OZZSSlF1Mu0fD2thje3xOPrK2dPXGpSFQO3t4ey67YFBJSi8ivaeKdHbHsPXaO/QmZ/NnfvU9BTRPbDyezMzaF/QkZ1LXY+Nm7e/n5e/s4fCKblOxK3tt5hAKRhmbzAK9vjSG7TMb++AzizxSx7eAJPt6XhELTwd+9vZudh06TU6bgoz3HsXZ5+WTfCc5kV/OHf/YLUrKq2LovCZVtgPd2xbMr9izv7YpH1GTl937/v/PWthgOJmYgbjbz4e6j5JRLeX9nLOeL6knNrWXn4VNsO5hEer6I//qnf8ObWw9yvkhMWb2a93bE8Tevbyc5o5ydh09RImphV8wpdh5OZtfRM6QV1PCf/ugnZJY2YFv3DJ/9c1zNMyoQ0qsZGHm0QJDboti9VGtHic1r4+3jUn6yr5w/+jCb145UkVbXRXNHAFVHCFXH5ArqjklaO6ZocfoplRjJqmyloN7AJzGpnMmXcipPjtw0SqnUxP/5Rz8hJqWA8xVNHEzO42SOiMoWFy0doVXahd0Ul2l0TnK8QEVMhgSZeUIYElmLI7BeHKytz7dEafe98AKhTD1MqXqMouZ+zpS1cTJXyf5TVSTlNXJe3BEN3HqSAuEBJYtayjs3v6Bddw5x4RsMuxWEl26/IIGIj5vWdp0jhCbMSMveRduQwFdXp9ecs5mu4IuZvrwyibYhFnn5h0z67ITDC2t2v31R6rREv/8isTmNJFfZny6V6zlZYSO53EyxwspCtCzAPQIhch8v0RMVCJe/uS0IhMGNAuHZsioQZjlXIuWND/fyl699iKTFwqHj6Wzdd5wP9hzjbF41e4+dJbNUwl+/uY298am8tT2GvfGp1DVbsPYGKBXrSEgtpNnUzU/f2s6++DTe+OQQR5JzKahpRtzqIP5sEaczy3l3+2Fyq1ux9AQ4kV7Cf/vL1+jsD/Dzt7ez/1gq724/ypnsak5nVuJwB2gx9vLh7gSs3V4+2BVPrdLEJ/uS0NoH2XYomfoWGwcTM2kfmGTX0TPkVTfw/u44Ggwu3t8dR6W0jfd3xpJdKuGDXbGcK6qltK6VxNRC/vxn75BeUE1KVjl1jRa2H0ri3e1HqJbrEDUYOZtTxfaDSaRklfFnP3ubfXFneW9XLOmFNRxPK8LumbqPQHj2WPrnsAzM0ewMciy9iv7htUMMING7KVcPIbP7kdn89wgEuU0YepBafYhMXqr0Pk5WtpNe10OjM0DTBlqcARqdISTGYd7cmcD5ShW1qm5O5YrZdvgsGWUtNFjHOVei5Kdv76VMYUOkcbHr+HnyxQbq9AM0tgsbRzW2B2hqX39/pXOSxKI2dieXI9INobQH7jXqdu8qNt/3RyCoxjhZoueDw1nsTihgd2IJRzLqOFffTpnq2QiElRJGwnx9/RrNWh13Fhaf7fTFp5IEobAYCWNqb+fi5c+FpaBfStGzPoWB4IWLWF090fkWL8hwyIZ09fptzD2jGHsmMPV4nyETWHrGGZv6lCVYnZHyvASCdeCC8MP+nLD2z2Hrm8PaN8u5Yikn04soEjVz9HQOR0/ncr5ESqulH3O3lz1xaeRVN7P9yFmUxl40zmEOnsymWKxCaeilQmEiNiUXpaGHjw6cpMHYi9oxSHxaCSl5dRSIVMSmFHIqu4LE9EIs7hCW3hB7j6Xzs3e2o9R28t7OWMQtNpqNvZRJtMScyEZt60fcaufdnXE0m9z87du7qWuy8vGBE7SaPXx88CR1rXa2xZxG7xrlk8PJFNa18uH+EygNbt7aHkeFVEdcSgHO/kkSUgs5m1fB+7viqJS18Rd//x7phbVkFNZT1+Tgw71xfHwgkbwqJeeLxZzOruDjg8c5m1fJe7uOoNS102LtJ6NEyulcETbPPNbn+AxXmcXSP0ezI8ixtHtjEMRRgSB9oEAIobB5UdgmkNl9KKw+CpsHSCw2CXEKDt86Guw+lI4A9YYhkrJFnK/WUqZs5/CpYt7ddZzCeiMFMgtFYh2vf3yMFocPhWWIQ2eKEOv7UFgnUDqE9QfWbpi0jMQaYO/ZevafqUKkHfiVQNjgQShtHeJIej074nI4eLqKbQkF0Z3qnq1AgAg3bt/B2ulmYWllJPslTPe2kGtglKvXbworMb4KKQKffXED91BwzRj7izC4sD6FI2sDY58d0cGzaCnWtMnzEgjmgQuY++e+NY8yGpu6vm8OS98sFUorhXVtWNyTHD1TjFTTxdYDKWyLSUWu62ZP/DkUejdxZ0v55HAqudUqxBoX7+6O59DJHBqMvXywL4msimaSs+v5YN8pks5Xo3aM88a2Y2w9mML5skYKRG28/vFRPjxwhpxqDScya5C1dXMgMZesiibe3Z3A/sTzNFs87Dx6lvf3JiDVdhKfVsy7u+M5cjoPtWOQQyezSTpfTuL5cnSuMWLPFvDmzqOcKahDYewlMbOKFtsQCecqkGq6yCxvwtY3TW5VC+VyPXFni9gWk8Khk1mUyXSUSnU0mfpIzqqiwdjL2zuPse1wCoUiFWcL6qhXOTiVU817exKIzyinRGagSKzD2j/zbJ7TJgVCkz1AXFqlMMSwxoPwaIGw3gArbF7EtgBH8zUUtQ4hs/mR233I7D5k0SEKmd1PhaaP83Umypq6SC5spLShnaQcKT95N4Y8sYkGywhv7j5FSaOLkqZO4rLFpNfoSK81IrP7kdi8SG1epDYfUqsfmc2LzOonS9LOh3G5nMyXITGOoviOxv9VEAjF0RiEMvUoBYpeThS2cCxTQrbYTqGym5LW4Wc2xLC2jLfuLmDr6OHuUvilN6ZrHQUu9yBXr90g/NKKnnvTp19cxz0UeMyw+u9LWjtldf3bz1QgLMcgmPrnMfXPYur7dpgfwWbvYembxdw3I/SE+2ax9s1h7ZvD3j+HrW+aSqWVd3YlonaMYembWREVZs8MZo8wm8DaPyMQfX/5Ppa+WSx9wvv2wXksnlnsAxew9s8JefcL+VujHg2zZwpr3wzWvmksUaz9wmwE4bNprP3Twjn9M1j6ZzD1TWHun8E8MIMparAt/fMYPdOY++aw9F3A0jeP2TOHxTOHxTMjlDFaTrN7Blv/HBbPLBbPDNa+OcyeaHt4Zlew9s9hdk9jGZjHHH1u5v657/ycHvWsHnWtZbkd++doXCsQot+7xchmBMK9vXOpPUC5doxD2S2UqkeotwSpt/iRWP2IrV4Bi4DMPIHUPI7M6kVsGqesxU2tfgSJZYIKTT915gnqLV7EVt/KUWLzIbZuwBIgR9HD1oRCDqWUUKy0I30C3oFXQyBEZy+oRjhbYeJUaRuH0uvYc6qSnScryVN67lkL4dkJhF4WlyKvgEBYbSmXe+iVEwgXr1ynd8WD8Ku0qfS8PAimvjkMnhmMfbPfClPfLGbPgzF9x+vNHkE4qDt8qNonMHlmhPtGjwJzG7hPOdadv+Ez90xUaAjnmdz3u+eDEdpwFmPf3BrW1nF+dfW+Feaiea8ty/3LvlrGWUzRv43r8nv0c3pUGz+R5+SZwdw3S6Pd/8AhhlLV4AMFgszq24AXqdWH1B6guLWPHafFnK52UGcJUWf0U2sYR2SaoNY4Tq1xnHrjBPWmCUTGceqM49QYJ6gxeqkxeqk2TVBrnKDW6F2hzjSByDiGyORFZPIjMvmoMfuJL2zjvSO5HEopJqtag9QyhtQmlPlpCwSFzYvM7n0pBEJ56yCFDd3kyzspauimQNlDmWrkyayD8JhlfJUEwtrU5Rl+pQXCqxBX8UzSsxYIX3xzmzNrBMK3xRhdle5BGN2PuN6zmetn13C/82bX8PD7bY5ZTO65Dcw+EKN79p4yGjxTKxg90/cp49R3Yu39BaYf2s6PqvMjn9Mm2u3JCwQBqc2LzOalQjvCwUwlO1LqOV3toFQ1RLVuLGr4JxBFDX+1YYJqwwQ1hglqDOPUGMaoNo5SYxindg01hjGq9SPU6CcobhkipcLKR/ElbI3L40hqJTm1eqTGcWS2AHLrg8v3JJFbJ5DYJl4KgZBV305spoxTpRqyxE4y69opah6kVPUrgfCk0qssEML8SiBsOj17D8ItUirNGDcIBJNHMMgm9wyG5aVqH8LDDOdaA/owHn394+f5eAhCxeiewdI7hcVzr0AwuOcweuYxrngjVjFtAvMTZjN5Pm7+j3P96vuzmKMCyeiZxuiZoSEqEAbXroMQXSipTD2ExLZs+P3IrMt417y+P1Kbn3qzl0xJB5+cqOK9o0UcSFeQJuqgoHmIUs0EFXo/VQYfFfpxKvUTVOrGqdSNU6Ufp8owQaVhgkqDj2LNODmNg6TUONl9pp63Y3L4KDabQ6dKSCmUU9bUgcQ8jtzqR2YNoLD4kVsDmzDyD6/Do5BbvUhsXs7VO0nJrXuhBUK+oovE/CZO5jdz9JycpHw1hU190RiEVfIaBmi29D/FtfUj3Lm7QI+7j8WlpVfC6CzXYXBkjG9u3HyOKws+wRRdE+GLL79m1Bt83qV5udLziEFIqTSt6fEKaHvnUDonkdsCSOwhpLZJZA8lhMwWfKmR2wJI7QFk9gCN9hC67vVeCYN7nqaOaRT2aeSOaeSOSRTfc+T2EHJ7AJVrBqN7Fr1nGoN7Cr1nGqXdT1x6FUPDo6tf7nAEqcFDeVQgSK0+JNYAMmsgahx90dePRmoNINKPkStxciitnvdi83n7cB5vxhTwbnwZe9IVHM5REVeoJ6nCxokqOzH5bRzOUbP7rIz340p5Kyafd2LyefdwDjsSizicVkFqWSOVTR1IjUNIrRNC4GJ0mENm9QvDHQ/Fv+k6PAh5NC7inMjJ6dz6F1ogFDZ0c7ZCy9nSNo7nNHGqVE9hU989q8XlNgzSbO5fiQx/4iWMRLh58yZXrlzh2rVrr4RAAFhaWuLy5cvcunWLGzduPO/iPJG0tLTEtWvX+PLLL7l+/for86yeenoeMQgpFSb07hn07ukV5FY/u07VklyiIbGkjaTih3OiRPvSc7JEy8kSDUlFGg6fa+JUYQutDh+GnmkMPdOoXFMcTJdzvEBNYrGWxBegzM+bkyVtxOU0cSRDhsI0gsEzg949id49hcLmJy7tXoEg0bspUw2uCASx1Y/Usoz30cIgeq4kepRZfMjME9S2DVAob+dMuYoj50RsP17I1mP5fHA0m3djMnk3JpMPj+Xy0bE8ticWcuB0OTFnKjieJSG7xkBpQyci/SASy0TU0Huj8Q/Rv20+ZCtlFmIipDaBessEYqsXic2HZE19NpZ5s8gsQuBlhsjxQguEMtUIqVUmdieXkZCjILPeTq6im/wG9zMXCHfu3MFms2GxWJifn38ljM7S0hIXLlygvr6eYDDItWvXnneRnki6du0aLS0tdHV1cenSpVfiWT2T9Ow9CMsCYRq9eyrKNFJzgOP5KqyDFzEPzD8S68BFrIOXXmrMg59iHZzHNHCR0pZBtscXUK/xrAiE1s5J4nKaaeuew9x/EdPARUwDF77XmAfmUVgn2JFYTpHUisE9g64nhLZ3ErnVy9G0ynsEwnIMwopAiBp7icWHxOKNvn4cAkgsfuQWPwqLF7llArllHKlxlBqNh4qWLipaXBQrnZQ1dVDe4qKipYsajRuJaRipeXzFQyC2+BFbfEgtE6sCwRag3hqi1hSkUucnv3GILEUfZ2o6SK6wc7rKQZbCTW5jP2U6L9VGP2KzD/myd8oaeKz6SC1+ZGYfYquX9Bo7p1/gIYYy1QgJeU3EZIh478BZjqTXcrKomTx5B6Ubtrp92gJhfn4ep9OJw+Ggvb2du3fvPoVcnm26e/cu/f39aLVa3G438/Pzz7tI3zmFw2Gmp6cxm824XC66u7sJh1+BoZNnkZ6XB0HXO42uZ3KFepOf+NxmYdqbZwqTe/Lh3DM+PY3ZMxVlOsrsus8t9zCzzg3h9wAAIABJREFUjo2R8Rs/X57yZ+qbwdT34M83izCVTxg/L272sCOhAJGqG333FIaeKVSdkxw534DKFQ027JvB+JiY+mdXiU7pXIup//G45/q+2fV5bMC4AeH9x893Jf/+WWTmCbYfL6VAakTbHUTbE0TbM4nM4r2vB2FZIIjXGOXvIhDElgDiqEgQeuCBFdEgMfuE96zL9/YhtfiiefkQW4QhDrHFh9gSnf4Yfb9SO8Z5aTfxhXpisluJzVYRl6vidLmZ1CobWdIu8hW95Mh7OFNl43SFhfh8DUdzWojNbuZobisZ9Z1UtI1TZwkKeUXLsCxshLL77qmTzCwIlfQaG6df0CBFYaOmEdKqLew+XcHfb0/ivYPnOJ7TQGFD1zMXCLOzs/T09NDb24vf738leqW3b9+mq6uLnp4euru7uXXr1vMu0ndO4XAYn8+Hy+XC5XIxOTn5SjyrZ5Kem0DomaKtO4Q2Sp3Jx7GcppXZDWuHH+6HEMMwt4IQeDiF0T0tRMa7ZzB45tB7ZtF7ZjB4pjF6plaJnreMwT2L3jO3gsEzu+5zgWkM7ml0nhl094u6d88+Hp4ZdJ5ZdL0zFDZ62JGQj0jVhb47hKFnMioQGml2zaB3zz402v/BrLaR4T6zLR7res/cfa6fveecteg9c+jW8F1mrgjMIjZ52Z64LBACaLsDtPWEkJrHHykQJBbvPQJB6MV/ex7fAyHkXW8RpjfmNQ4Sl9fG0RwVabVO6oxeWl3T6N3zmPvnsQ9exDZwAWvfvHAcuIhl4BKWgU+xDFxC755D5ZpGZvGTJe4gNruZI3lqsuS91JqE+tWveCvWv15GZg4gtvijAqH2hRQIxVGBUNjoIVfuIr+xh3MiB3nyLirb7t2x7mkLhCtXrjA0NMTnn3/OyMjIU8jh+aTOzk6uXr1KR0cHS0sv+/LRQpqZmSEYDOLz+QgGfxWouOn0PATC6QcIhPicZvTuWXS9U+gfycw6DL1TqJyj6LtCGLqnqW7upLXdi653Bk3PDNreWfS90xuYQdsztUKTfRy5eZi2rpAQI9E7jbZnCn3vNBJDPxJdDzJDH209U2jdM+h6Z9H1zqLtmUXbM4O2d1rYEnjTCFsIt3VPU9DgXhEIuqhAaO2Y5PD5Bpo6p9H1zkTLvJm2WaXZPobCPITGFUDXHaLFPkazbQxj7xT6nkn0vVOCF6d3Er1bKJPeLeSj7Z5E3zuHrncObfcsup5Z6lQuNB1emq0jNFmG0HZNrrSnoXcGXfcUcuMgUn0/CtMwrR1+tL1TQl17ptBFz9X1bHwWm0PXO0udYYJtx0vIlxhp6w5ECSExvRwCQWzxUWfxU6oeIa5QR1KxAZF+DG3vPOb+C5j75qILXc1g7ZvH6hEWvzJ75jD3CZg88wJ981j65lcWubL0X8DguYDEPM7pCjNx+VoKmwaps/jWlfVegRB8aQRCmXqIc/UO0kVOChp6OJIp42yV+Z5ZDE9bINy4cYPJyUk+//xzPvvss1emVzo+Ps7Vq1cJBAKvjCv+8uXLTE5OMjc3x5UrV553cV6e9MzXQbh2m1PlRsEo38eD0NY9iaYrgKYr9FDauibX0eoc4c9/8RGpRTK0HQF2xKQi1bgwuqdQd02h6Z7C1DeLrmeStq4ght4pTH3TlDfYyK5R0+IY5X+8sYs3d8Tzzu5E1O3j6HtDGD3TaLuDJGWLSEgv5Uy+hCbbONquGYx9c2i7p9D2TNPWNYmud4a2rhBt3ZObJISmewq1K0SeomdFIGi7gmi7grS0BzmcoaShfRLNcl27g5umxTHOLz+J4909J/irN/dQLDFSJDFRJDGj6wph8szQ1h2irTuE0TMTFQpTGPtmos9lMirAZtF2T2H0zLE/MRuJ2sVf/nInH+5L5v19p2i1j2LsmcTsnkbfFSStWMmZAjmn82XUabrRdQcx9c2g6w6utI8uKkAe9ZzvoXuKWt0YnySUkC8xRL8rATTdQSSmsYfGILwoAqHeGiBT3sWxvFZq9WNo3XMY3NOCVysqAnW9k2i7Q2ja/TSYhzF5BIFr8sxi6Z9H3xNC1xXENngB28A8tv45jO6ZaPDvDPreEHrPLHJrkOQiHWdr26kzrw6LvMwCIUvayd6zdSTmN7MzsYBt8blk1Fgoe8YCAWBpKczCwuJTuvvzSUtLSywsLBAOh18Z0ROJRFhcXGRxcfGVET3PJD1bgRDhi2t3OFVuRNM9tc5YikxejmY30eqapKUziMoVegSTqFxTqF2TaFwhyuQG3tpxhPf2JtFsG+aDPQl8uPsY7+xKQGbsJ72skV9sjWHPsfOIWjv45cdH+OhAEn/73j7+8C/fIqNUwX//2fuobAP84uPDVDdZ2BOfwd+9v5+MEgnHM8qIPVNAfHoZrY5R4tIq+cX2OA6dKiClQIrCPMixc9U02MZQuYKoXIFNEKTFNUlLZ4gcRS/blwWCK4TWFaK5PcjBDAVyR5BW1+PTYBth66EztDrHkGh7eWt7HKmFEs6XN3H0bBlbD52lqslJ4vkq3tweT7HERML5Wl7bGsuZQgm5Ig1vfBJDzJkiTubU8otPYvmr17dR12Ln5x8cwNwT4L1dCeTXNLM3PoNfbj3M+TIlZwukpOTVcSSliLoWJ/HpZbz28VESz1VwNK2cZvsoxzKqaXZ4ae0MbCCI6qGEqNGO8HF88RqBEETTHUJsGid2wzoIC+EIEn0fpa2DiKPj8euN+rMTCPVmP/WWAJmSLk6VGWl1CR4q3Tqm0bgCnCmSIDP0UKG0cDyjkuScOjRdfrTdITIrmnl7exzJOTUcOJFDfHoFu49lonJ6BbHaM422J4i+JxAVxDNkiJykVDupNwvxEvUW/zqkZv8LLxAEwz9CYpGaXcllfBKfwy93nuCDw+eoUA8+cw8CwJ2FRfqGRlgML69l/2qkMW+I6zdur9+g4SVPV766zkRg+nkX4+VKz1QgRMJRgWBG0zWFpmtyhRrjBDGZjTR2TNLYEaS5M/RQmjpCNHZM0tIRQt0ZZFd8GqeyK/jpu7soazDx/t4EciobOXAii0OncvnpeweoabKxIzaVY6kl/OnPP0Sqbud4ejl7jp1Dou3m//mL1/hofyKvbz9KarGUXUdTEatdvLH9MIdO5hFzKo93dsXTah/kzR1x1Gl6KKjX8v7eJLIqGjiQXECLM0BLR4imjsAjae4I0tQxRVP7JFmyXrYnFKwRCNM0OUMcyJAjtftpavfT2BGgsSO4aWSWEd7bfwqJoR+ldYSff7Cfw8lZxCTn8cutsZRI9JRIDfzyo8PUNjqQ6foplRlJya7iJ69/zImsCj7Zn0BVk503tsVS2Wjh7Z1xiJpt/PFP3+bD/Um8szOeM3m1HDqZTW2zk/f3JpCcVcPp3Gpe+/AgueUN/PKTGCS6PkplZn72YQwFdVp2x2fR5PTR3BHcBKE1TFKpGeaj+GLyJSY0XUHU3UFU3ZPUmSaITatetxeDIBD6KW4eoM7sQ2z2UR89bhbJd0YwviKzn1L1GAn5bTQ6J9F0L3vAplY8YRpXCInOw9mCeo6lFXM6r44DSVmkFysokJpp7fBTVK/nQMI5UgullMgMtNpGiDldQFtHgDbXJGpXiDZXkDZXEI0rhMYVQtU5xfFCHedE7dSZ/dSZfSvUm31ITMLxRRUIJepRylSCByFT7CT2XB2H0yo4V20gPkdBcUv/M49BIAI37yxg7ejm7tKrYUiXZY7LM8qX39wi8kr0toVaXfrixspmTa+KZ+Spp2ctEC5fu8OpchNq19TKj5fGNUm1YYKY8400tIdoaA+gdG6GEM3OIDLTEH/8sw94Y1sM/+1v3uLwqRw+3J9EudzE8Ywydh9L4y/f2ovC5GF/UhaHTmTx1s44WhxjHM8SsTcxG5m+h//3b94irUSGxNBHcp6Y/UlZNFpHeX3HUQ4kZhNzOp+3d8bTahvgvT2JNFhHkJkG2HE0jdc/2s+5qlaanUEaHCGUTv8jaXT4aXAGabAHyZT2sj1eEAhtrhBtnVM0OYPsz5AjtnppcHhp2MQ91yIxDfPuvmSkejflTe28seMYB0/mkHCukkKxjp99cIADJ3L4xdbDKIyDyEwj/N0H+zmeVsCf//x9TmRVkXiuHFFbL69tPYJU182OI6nUNtn5s7//gJzKBmSGIU7li4k9U0yjcYiP9p/kVHYtp7Kree3Dw5wvlvH2zjia7eMorKN8ciSdt3YcI6OsCaXdR4MzQONjEaRCPcRH8cXkiY2ouwKougKouiapM44/FYHw3fFTb/YhMvk4UWYkX9lLi2sKVWcIVcekwBovSXKehH2JWaTkicmpUrE3PoMSiYEadQ8N9nEySpR8tPc4KflScmvViDUujp4tReXwoeqYpLUzRGtnMEooyiS1hnG2JlRS2Tb0UguEwsYeEvOUJObJyag2klyiprBp4NkLBODW3TD2Tg93F18tg+PyjHD1+s1XYKnlCMLWzmEuXblJ7/CvNmt6rPTMBcI3d0guNaGO9nSWqTaMc/h8Q9Tw+1HYfZvAT6MjQIHEwrZj2TQ5vVQ02tkem8a7O4/z9x8c5O8/iqVc6eDDQ6m8ves4r30cQ16tivcPnKbRMUGu2MTfvn+Q9LImfvL2ISTGIRocfkoaO/nZB4d4c+dx9iRmkXC+kqMZFXwYcxalZZCffxLLWzuPcqpIQfy5Sv7wL35BvaGfBkcAuT2E1BFA7gigsD8Ypd2H0u5HaQtwXtLDtvh8altdtHUGaeucpNERYH+6jHrLBErHBEqH77EFwmtbj/Le7uP85J39ZFeriEurICaljB3HzvOLbbEcz6zmjU+O8u6ek5wpbuSv3tnNtiOn+Ks3d3K6UMap3HoU1jHe33OCt7Yf4ydv76OmpZM3dsTTaBmhweanUGrmp+/s453t8Rw4mU9KYQOn82W8vfskhfV6fvnxYd7Zc5L0CjUFdVr+8C/eoFbdhcIZQuEMoXQEH0iDI0Cjw7+GAGWtg3x0rJg8sQF1dLim1RVCZBh7oQVCtWGCI9mt1OjHaO4UglAFgRBE1REQBEJHALmxn4SMCvJrdWRXqfnowEmSc0RkiXS0dPiJSy3jr1//hIzSJs6VN5GQUU5aaRNK8yitHVM0dwrDdC2dy564SZo7gigdft45Ws6ZSi11Zu9LKxBOlek4nFrD9oQcDp6pJj5XSZlq+DmspAiB2S+oabZz8cqtV8IbH4mEufLNLaRtnbi989x5BTwjERZYWFqie/QCcmM/V2++WjEjTzV9F4EgOG42JxDC0fWwL39zm1OlBqH3tGZcuUo/waFzjcgdQeR2Yf37zSC3+pCZx6gzjCC1BpBaJ6jTD1GvHaSypZsqtQeZzY/UMk6Rwk6dbgCZZYxa3ZDwvnWCao0bsXGEOu2wsAZ+9N5VajcFMhsy8ygSyxj1pmFqdQPIrOOI9AOUNTiQWEY5UahkV2IOCpsXuS2AzBZcWUL5YchtfmQ2YZ39dHEXnxzLp6a1C01nEE3HFA2OIHvTFdSaJoQ9A2w+YbOhTeOjtq2fypYuJKYR5NZxpKYRJMYRqlq7KWl0IrGMITWNUNHUhcI2Qa3OQ3lzO2LDEGLTKPWGYWT2AFLjMBXNLkS6AeRWL9UaD4poeeQ2L7VqDyUKBzLLOBLTOGLjKLXaQWELZOMgZY0uZJZxckRa3tl7Apl5BLkjhMwefEQbBTbsPBigpGWAj44VkVuvRxWNW2hxhRAZRolNq3psgVD/jKgxTHAsT0O5epgGZ4gm5yRNziBN7QGanEEaHcIxs7qN2DNllCmcKAxDvP5JLLviMqht60VuGWH7kQz2J56nVt1Lfr2Ro2dLyazR0mDz0ugM0uAMrnhcGqKetianH7ndx5tHSknKV1Jnur9ASKuxcjpPxLUXUCCURoMUS1oHSa0yEpcjIz63kYT8ZkpaB7+FQIiseT+88s5m/y0sRThX2sTv/+0Bmm1DLIYF0bBZnla7rdY28i0I0zMyxR/+MpYdx4u4cTu84fPHL813TZF1z0nobD4ei9y4vcSO46X8t7eOMxS4RCSyFP2GPYiN7bJan5dfMj1G+rYCoa7ZvvqViix/ssr6f6yM+1z+5jbJpSZaOkMrvZyWziCVeh8HMpoRWwLCD+qGIKoXDx/1Fi/1lglSa4zkN7juDUp7BJKVo5ezdR1sPZZPVUsXqo4Qqo4pFPYge9KUVBmixuwp1GNjwN0jz7cG1vG4+WWKzeTKbMLiQWZh4Z7Huoc1QGHzAB8cLSC3XouqMxD9LoUQGUaITat8bIFQ94wQGX2cKrOSKXYJe0rYAihsfhQ2P3JbELld2F8kp85CwnkRmdU6sqt1/OStfZwpkBB/voZqtYfzlWr2n8xFbBimRu3mZK6YBqcP5RrPmsLuR+4IILcHkduDKGxeCpr7eCcmn1MFiocIBAspL6BAKN5g/Es1o5S1jUVFwyilmrFvIRCWhA4OQs85HAmzdA+RBwOY3SH+5K14/J/djrrjN2uI763vk2q35XtFIhHC4fBjssjVm2H+duc5Kpu7CYeFtlnl0eUMR4QO4ZOrVdSKRIRjOBwmEo5sGiKLLIWhSNnJ3+87x+WbS4TDi0Qii4JQuIfwPXWORNbbsu9N+tYehKhAIBL1IESWVmGJyAaILEJ4ic+/uUNSmZXmzhAtnYEogkDYn96EyORDZJx48TFNIDKNrVBrHKXOOEH9Gh51j7qV4xgpte0rAqE1KhDkUYFQoVt//vOk1ji+jse9Xmweo26lrXzUGb2Pl7/JS35j/xqBEKSlQ3Cp1xpGOJJW8QIKhGhQoMlLhWac2BwN5doJpNYAcosPuSWwbq+HkoYuqlVuCmQOskUm6nWDHDhdylt7TqCw+cmTWonNqKJI2UGRopP0Sg3pNQaq2vqRWCeQWH1Iovs3iK2CqKs1jLL7bD27k/LJERmiQwyrvGwCYdmjUKIeoUQ1cs9nmxMIYSLAlWu3CV24SnD+KoG5L+7DlQfwBT0TF0kulDM6+xWhC1cIzX+xSa4Qmr/K9PxVbt9aemJWZ/k2dxZh6uJXBC98RXD+K0Kb5gv8c1+SUdWGoWeK0PzXhC6s5RsmH0Fo/isufPEE93CIAJEwRMJcuvoNUxe+YurC15smNPc5U/NXaHNNklVnxXfxOqELXxK68CWTF+/Dha+YvPD1CqELXxO88CUzn37F4iKv1MyOR6ZvIxAWIhHqWh1C6EckzFJkM24fQY19+vUdkkrN0eh0f5QAlXof+9IbqTGMU6Mfu8cQvZiMrqPOML6OR12/co5+lNM1TrYey6ey2UVre5DWdmFnyz2pSsraxhAZxhFt4p5PmxrD2HeiVj+OSD+OSD+BSD9BrX4z9xxfodowTq7SzYdxqx4EYXZDgFr9MEdSHywQRCYv9SYvdSYv9cZVRKanjS8qKMepNXrJUfZxKLOVUtUI9UY/EnNg3awHsTm6LLJhHLHJR73Zj9g4Qa1uiFqzVxClxhHqjBOILQGhPqYx6kzj1JknovgQRcVJhXaMAxkSPo7PJimnluq2/mh5BOpMEy+lQHgUjxQIkUUiQKPZQ2KRiqRiLSdWaONEsYYTxer7klSsIqlYRWKRimN5LSQVtZFU1EbiY6ElPqeFYf/lJyYQln++5z+/RXK+kuRiHSeL9ZvmRFEbycVtHM1uJrGwjROFbY93fbGBxAIdhWILC4tPMMAxEuHuUpjcWjUnijQkFeseAy3JRRqOF+iJz9dzoljPyWLtQ9CtqY+epGI9iUVakotb+fTrO0TC36MYhm8rEM6VN6NrH0Tv6EXn6EPrGHgoGmc/OnsfMr2bw7lamtZNBQxSofOzN72RSr2PSr2XiheeCSr04ytU6sep1Hvv4WHXV+m9VOonqNSNkVzlYOux3BWB0NIuuJt3pzZQrB4XztNP3DePl4kqvZcqvW8Nm7lm9fxKvY9MuZv34wrJqdfR3B6guV34LtXoh4lJrWBgzToIi+EIUn0/Rc0DK8ZwI6KnjndFIAhHHznyHnanSDlT5aBSO4HI6KfO5KPe6KXOJMx4EDxGXkRGwatWY/RSY/ZSaxxDZBynzuRFZPRSa/RSa5qgduX+XmpNfir1XtLqnXyUUMLWY/kcz66hvLWbupXzNgoE7/dKIEQiSyxFQGIYIF/jI7/NR4FmggKNdxNMUNQ2TrF6lDL1BMWqcYo1XorVj4HGT7qkD8/E5eUx2O/cauFoTac/vUm2uJMStZditW/zaPxC2VReSjQ+ilUTj3V9kcZPnsrHeZGZ2wtPdpnmW0sRMmuNFLaOU6jxraKOonkwxeoJoT7LZVVN3EORajzKBEUqbxQfhSofxRof6fXtTH1+TfCGf1/S4wqE6DVcunqbmUvfMHPpG6Y/vUbo0+sPJfjZDUIXb+AJfklckSm63kEoyiTlOj9vx1VwJK+No3k6YvPaOJKveaWJzWsT6pmnYdtpCR8fzaSquVMQCB0BJPYgH50QcyinjZgCNUfy1RzJa/teEZvXxtE1xOa3sTejgTcOZZFdJwiExvYgDR0Bqg3DxKRVrF9JcSmCRNdHYXP/UzL+j0+dSejll7QOsPeMlI+TajhZbqVENUqV3k+tIYDI4KdG71uhegM16xCEVLVJENfl2nHO1rSzPVnEW4fOsye5iOQ8OZWtbkTGCervUyax0UedaeL7JRCApQjIjINRQ7oax1CqGaVMM/ZUKdWMc17cRf/EpdUCfce0/PM9+dkNMqUdlG7M81u042YRYkHGKWodJVtk4M7ikxUIdxeXyKrWUqoaXlen9fl/u+f28HYZoaxtlEyxnZnLN4Thju9L+jYCYeXKx4xujYQXuHz9DidKzVFhsLqoj9w5RZaknX2nqzh4uor9yWXsTy59tTlVwd5TFew9XcH+lCoOnymjssUV7REHUbQHUbTPcrJIxf6UMvafqWT/marvFQdS1nMwpYL9KWUcPFtOTl0bjU7veoGQ+nCBUGu6N47i+TBGrdGHyOQnR97D1uOV/Om7yXx8QszZ2k4KW4cpbRunXOddx7IHau17pW0TFLaMkSnv+//be8+2uM48Qf/j7Df4v9k3/92d6el2d8+4bbeTbMuyckASSCBA5JwpKCoHKKqoCFTOVVDknCqREQ69e3Wc2XF3j922dO+LKrICsgRyqJ+u+6Kok57znIOe+zznCVypNfO/Pq7g7axGrpeIyatT0Kr1oPHF0jUSCTSPaUfykxYE3wIS50FBOBUOCMLDly4IjT3DSJ3xg5z4ecVPRRD2n9PJX6uMIDy3IDy/HqTi919+xX2Jf3e8g91BgwbXMIbidDsn0TrH04z+qOl2jh9A45rCEIxjjmxgGlrHMrRCb2SFHt8sGucY3a6JnyS6A4yhdY2icU1gDCzRuzNo1vAqKs8iOdXyJwpClz9Bpz9xajUFxyOBNpCk07lIm2GMvCYz5+/LeTungzduCng7p4PzpRouVfZwuVLP7SYrV6oNXK7QcbFMy7t3xLyR1cq7t9v4KFfIhUIR2TVqStt7aNcHUbnm6AykGnd2+xNo/YnUa4tD6dD6ltH4E9T8BAVB71tA6lpBcuKCEE1zOoLQoBs6dNzHN+Y8CUFo1vj4+iULwlfffEtLpweJbfEUziMjCMCL1CAcjqf3Kd3Zwx++/JoisR/z0PqRkRFNQxupcRAiGz8JTJENTIN7WCJr9A5vYB7aTA0iFFnDPLSOaWgFfWQFQ2Q9nT8/LUyDexgj6xgi6xiGNjAPbWAaXN8nCFFyqpVPrkFIC8LzPem/jBqHvSf3w0/vXf54Ok2pdbp9MdSueUSWUeo6fRQL+7hVreZahYyrZVIu3BdypUzCtVIJ18qkZNd2ktvQRWWHgVq5FYl5BLVzDo0/isofRx1I0OmP0+1LoPVF0fjjjz2nHUGoVgW/l+MgnLwgLCNxxpE6ltJEDxQQR3nasuhTli3tLXcmDwrCS4jDgiDdPadFpI7oESRHvos95ffYvhqInW1jB/YlcSTo2BGEl9wGYUcQxLalI+ewk6aD3z3uWh0Wtmddx9Q1k7liNGYE4UUE4XhH+8OXX6UFYSMtCevpQnAdY2QLy+AqlsE1zAOrP34G1w6QKgQPSoMxsoopspwaRXFwNfUzwy6myAqmyCqmyDpKd4w7NaqjguCbQ9g7e6yeJUdZfkyBmkwTTxNDs4/Ud/uq8H1Jun3JdO+W+GMk4Qn4Eqg9MdTeJRSuGaT2KSS2yQMo3XOoPAupHiIvIDE7glClCvxkBOHho1SBavDNI3UlkdgXaOqJIHfO09E7g8QeQ+JcotEwgsS5gNixSHvfNI2GUUT2VEHfbBhDYJ6kxTKFyLFAi3Gc1t4ZxM44HfYlms1jSBwLtFvnkLnjtJjGkTqX0k+lSRp048wun5wgyBwxhJZpBKYJxNZ5FM4obaYJRH2zSG3zSO1LiPpm6LBMIHMsIrVHkdoXaDWOIrUvILPHEFpmkNjmEFqmkaVrWVrNE0idSylBsC0g7JuivW8OsXMZoT1G0wkIws4rhg57DIl1jhb9KHLHIgLLNBJXFLFtHoFpFJljHpF1FmHfNI09I0jsi4is8zTpR2izzNDWO09b3xyC3mna++cQ26N0WGdp75tGbFtA2DeL2DZPi3ECsX0BsW0BqTNKg3YgIwinJQimQ4JgjqxiimxiiWxiiWxhHvwJENnEHNnY5bAcmAf3hhw27dQ4ZDhAKu82MUW2ULrj3Kk5WoOg8x4WhOQzeFJNQopOXzItDin2d8NMkdytFej0JdD442h88bQkrKR7HhxfElLH3TlW8gBd/uVj7u/p56z1pfZRqfRT0db1kxQEgXmciyViatRe8losdPROUyyyca6gjXyBkaaeQUoldm7WdFEu89LQNUBek4GSDjt5rX0IjGNcLVFSLvOlCqSeEXKbTbT0DNOgiSC1L3C3xcjdFjNFYtepCILYOk++wMzNWg0FbVZEfdPcbTJSIXNzs1qD2DpLqcRBVqWKEokJE6bIAAAgAElEQVQTqW2BErGDy6UySsQOWvUj3GnUUy5zcqNKTZtpnGp1iCvlKuq7B2nQDpFdpyNfYKFKHUTsjO8Kwj9OSBCkjhjNughXy5XUqPzkC3pp0kUobLNwrURCaUc/lTInlXIX18oU1HUGKBZZudvUQ7nMyX2RgzKZl9xWM+UKHxLbPBVyD8UiO43aCI3aQeq6BrgvtHO7Xk+dZjAjCKcuCIPrB+Yl6PImuVjazVs323nrppA3sn4KtPNGVju/yWrnnRwJbcYJDAN7tQg9oXVym/t582Y7r2d4LG9ktfFOloAqRQiZI8ad2qM1CDrPLO2WmbQgJI8Uskc5OAaD2htH7V1G7V2ly7+JJrSOzB2nQj1IfruHq9VmPinRcb6shwvleu62OimRBhH2L9AVXKMruILam0DlidPp2xGL533NsSMnh2Vkh2eMJeFNPpVub+q8f8qCUCSycbtGRW6Tlpw6HQ3qEPca9Xxwu44b5TIKW43k1KrIqpBRLXNTLXNwtUjIvQYd95qMCI0jXC0ScadeR4nITlN3mBtlCmqVXqplXmqVAfJbjdxp6KHDMoXcGTtxQZBaZ7mQ305ObRdZ5SrElnHO32unTR+hRuFG0jdFpcTO2ewGGjr9KOzzFLVZKGozcatKTUv3AOfzhRS2GnnrSgWtugjFQitZVWqq5G5adBFyarqolDqoVnqROmIIbScjCDuvGGTOGPnNRvJbjGRXaygT2ymTOrlTr+VcbjM5NWqyKhTkNui4VaWisdNHfpOOG2USCpp7KO2wUa1wpxt9q2nWDlImcXC3sYdyqYu6zgA5dTqq5B7ut/fT0TeF1LGYEYTTFATjPkEwDq4hcsbJaXFin/jfuCZ/h3P8ix89jokvsKcRWqa5W9eDxhNLDbs7sE5XcJ2sOgumoc9wTH6Bc/ILnJO/+/4x8UWa77qPL/bxPMf9Hc6J/4M+sM7Naj3NPaPk1ChZ2BkH4RF88y1pQZhNDzSVpNO3fIjkoc97Ba/Sm0TijFLZNcytBivZjXbyhR7KFSFaTZOIrPNo/El6Qmv0BFfpCa4itS/Q0T9HrWaYYrGf3BY7N2stlEiCtPcvovQct9ZivyAs0+VbfnIh/5IF4fs2WdNJC4LElaRM4iKrQk5ufTd363QIdMPcrdNxPk9AWYeVEmEfRQI9FwtaKWwxUi2z8cGtKnJqVOQ16SkR9nG5sJ0rxSLyWwzUqrxkV3dSr/YjNIxQpwqQ09DDpWIpZRI3EvvSiQuCpH+GS0UiblYquVgopqHTz4WCdqrlTvIadTR1h7nfauRSgYDrpTIEPRGuFImoEPdyp66bhs4QV4slXCsRc7uqE0HPMLequ8hvNVLc0U+LLkJuvZZb1UoK2y3InVE6DgnCyyo9dgRB6ohS0GLiWqmMu3XdlEtdVCq83KnXcaVYTJ3Kx40KFSUdVs7kNFGj8JBdqeRasYjrxVIqxQ5uV6m4WSnnQn4b9eoA91pMVEgdlInsSK3T5DWZKGzr52aNlgqFD5lziYbuTBuE0xOEQ5PwiB1x7rRaCSz8joG5LxiY/ZSB2e1dwnPbhPYRnv2MgRckNHeY7ScSnts+kJ6B2Seve3xSxw3PfIqsb57zue1ILGMYB1bRD67TFVjhVoMJ1+QDwnOfp9N9NB1PIzzzYJfn3fZ0eMDA3NYez3luodlPMQ2ucjZfTFFHHznVSuaXEnsjKX4LOs88gt45Or1JurxJ1L7HFK77fu/yr9DlX0ZsXeB2Yy+3mm00GyYxD27gnfmC0NznhGc/22Vg7sEes9vpe/czBuc+Z3DuCwIzX+AY/wyJbZF7Qi/Xas3U68bo9K+i9q3Q6Vt5ZgF+0qTyJU650k9ZWxd//dtX362b0kuLkxeE1JwK0OOdQ+JMUKXwkV2joUJsp7DFRKs2wuXCDi7ca6VK6qJa5k09bd9t5F6Tnkqpi/wmPXnNBgrb+hH0DHOtVMqdum6ulUpp0YbJa9RTI/fRbhinzThOocjBnRYz7X3TSJ3xExeENvMYN6vV3Gs1cKNShcgyzrVyJR2WcWpUPmTWGZq6Bihu66ew1YTcNk1Bs556hYPiDhsdfTNkVSg4m11LflMPAsMwxSIbVQoPDZoQTdoBzuW3cbVMRna9ho7eyb1eDP/4dnd2ipcRX33zLc2dHqTOOIUd/dxt0FIjd3Ff0Mt9QW+q23ipjFqFl6K2PiokDn51rohquZuCZhOVUhdZ5SoaOv1USu3cqdNwrVRGXmMPDZ0BqmRuitv7kVlnKJG6qO0McV/kQNg3i8QRpb57kO0/fJkZavlQvHRBuC/ypWYx3DfzoNgR526rFf/c54RmPic88+kBgjMPUsymCE0/IDS9TWh6e3ed/Z+fxM46oZlPCR5ge+8YTyB8iL1lW4fW3Tom2wRntgntCoIAsXkEQ3gFfXh1VxAc41sEZz4lNPPZ8c7tGPnwdFJpeuwxXmi/nxKc3j7A/vwMzWwRnnm+tIdmPsMYXuFswcsTBKkzzn2Jn/tiLypXFOf4AwJzXxCc/YLQ7Ofp6/B5ms92r+PB++lzgjOf4Z9KpTE09zn+uc9xTW9jCK9QpRrgntBDi3kOlecpNQPHJvFCZAQhQZt5kkq5h3pNiMK2Xpp1EcolTi4UCrnXbKJJN0izLkKtOkBOvQ6haZQaRWr92q4B6roGyWu2ILPNk9toolk3RLXSQ5HQitA8QYdlmip1mAplkDpt5FQEQeZcoLrTT4txmDtNeiS2WQqFNloMI1Qq/bQZJ6hRhajvGqBa6UPljlGrDlGj9FOtDiOyzlMicVEhd1Oh8NHeO0WpzE2DNkKDNkKzfpgymYvGnkGa9UMIzCcvCGJ7lGb9CJVyN/VdIfKazTRoBihq7+digYj77f00aAZp6h6kWunnXosFgWGU+s4wNaoALT3DlImdVMp9SPpmyKnT06ofob4rTIGgD7ljkZquQWq7h6hQhWjoGUHiiGUE4bQEobDDiyG8Sk8oiSG8giG8gsgeI7fVinfmUwJT2/inPj3EFoGZLXxTGwSmNwlMbRGcekBgcovQ9DbBqQcED323n9Ty1LLg1AN8ExsEZrZTTG8TmP6UwPRnj8U/lV4+uU1w8lNCU58Rmtq/zqf4Jrd3OZr2p/GA4PQ20t45zucKEJmG0YeS6MKrdPqXyao1YBvdwD/14Mi2vnQ++aZSx02l9VP8j82/4xGY+YzAzGd4Jx+kz+dBar/p/PFNbR84rv8IT0jjbr4cXmcb3+QW/ukHz7wOj702059hCC2/lBoEpTuGxLZAdnM/EvsS7snPCU5/upv33qltPJOfYvLNE5p+QFf/CI5IgsDUFv6pBwSmH+AeW0PrnMQ5skJgegvf5Ca+yQd7554+T//0F/SE1ikUeWnWT6D2JJ7y+uA4rxBejIwgJJA440gci+muiOmeBo44UnsUmSOG1BlF6oymR+9bQuZYQmGPInelRhCUOhJI7VHkzjgyezSFYwmZPYrcEUdqjyO2LSG2LSGxRxE7Tl4QJM5FJI55JI55pM4FpM7957eEzJE6N7kjhty5iMwdR+JKIHFEkbtjyNwxZK4oMlc01WvBubetxLlHalkUqTN+4oIgsqW6Msrse90TxfYocmcMhWMRuX0RmWMJuTOK3Jm+BvuQ2heR2hfTy1LryB1RZPbUNlJH6vrs4lhC6ozRoI1kBOE0BKGgw4M+nJrmWB9eQR9eocMeJbfVimdqG9/EAzyT2wfwTW1hi8RoUdtQ9Q7iGVvHN76Jf2ID79gqRfVKuvuHqRVZ8E0+wDu+iXd8Y/enb2ITx1CCJlkfwk4X3rF1POObeCa28Ezs/NzH+Bae8U286eUa+zj14l567JP4JzbxTTzAO5nCHIxSJ+1H45hE65zdLbB3tt07zkFcabyT23SYZ/hkvyCEVtKCYKR/ZCO1zaE88U5to7KOUi3uRdE7jGdyC1NwCbllGM/UA9wTW4d4kGb/54N02iaRmAZxT6yj7B+lRtaHObCIa2ydqg4ztsgyrvFNrEMr1MlteCYf7GMrTep39/gm7oktLMElaiV9yM0RvBNb6YI2lQ7n2Dp3qqSYAgt0GIK4JzYP7fMg7sntI2gDcT7ME1Is/I6C4I3T6UsisS2Q12zBGFrBM7GdTv82rvT18o5v0GUdpVqkxz+9Tl61mAZFLwKVA//4Blr7BO9eKqBF1c+NwkaKG1VcyaulSWnfPV/P+DbuiW3c4w/wTnyKfWSLUpGDBu0w6t30PKZG4YmNE1MNFNWeFyMjCAnEzjhiRyyFM4bElSogZDv95J3xA0gdixR12KhR+xFaZ5E4U9NOi9NdIMX2xX0Fajpd9hgSexRpet0G3WhaEF5OJh8dKGkpXcCl5EbiTJ2H2BlD4owjdyWROhPInHGa9KNUd4Zp7BmjRT9OlcJHschGqdSN1LmELC0Cu3n0GCTpoZZ3ujm+zNtntwbBlupeKbEnENtj6WuXSOfvYkq+dgv31FgNHdYFCjtcVHcO7F4HqSOBxJEajVHmiiN1xlLbHbmXohlBOG1B6AmvoQ2lp94NrSK0LZDd3It9YgvH2BbOQ/RGlnnvSj43ixq4VdSCJTBP/0AM+3AC2+Air717lSapgav36vFPbWEfWsYxvI57bBvH8Br2oRXEPX7eOHuTGwW13ChqxjG6Qv/IMvaxVawja/QPr2MfXaM3soxj7AGO0TUs4UVcY2tczm/gVnEdv3j7YxTmII7xLfoGk9iG1+i0j/JJbjltOheKvglc45v0DSRwjK5iHU5iH1nBOryMc2xtF8fYGvaxDexjWzjHH9Bumubc3VY6jJE9QfCtcKPOgmloA/vY5pF8Ccxsc/ZGIXfLm/ngaj55VWJ0nkkalf04R1fpH4jiHFnDM76GdXAJ58gG7rEtrIMJHMOrOEc2cQyvY4us4hrdwDq4QqPcTrVIR6mgm4+zyylslvLGx7foNIX5+FYFvaFFrINJ9J4ZrhXW4xhexT60gnUwjntsDefICv0DCZwjq3x0swKdZ4ZasZkLt0r5JLuE8vYe3GMb2CLLWAeT2EdX+ae3LqDuD1Mn7cU1sootksQ1sp6SkbFNnGMb2EdWcY5t4Rjbxj62dQCNL8oHue0UtfeSXa04Igh67wKt5tnUU7ongcqbQO3Zo9MTQ+lJkNfhQWGbP3Lv2cc3U59H12hUWKgVGyioVZJ1rwGxPsD9OhW9/gX0nmmu5zfQrrZyt6wdvWOUOpEeZe8g9tFVXBPrOMfXcYxv4hh/sIt5cJMbVQaEllnU7hhqT/JA+k6DjCAkjj3U8s54/+2WKe7UabhdqUDUO3nMdEX3ail2BeELTkoQxM5DBfghZI7U4Edy1xL5LXpKhEbyGnXUyH3k1mu5Vioir9mA0rlwaPCoJ+VN4kgjxZcV33UkRakrRoNumOy6bnLqtUgdC3tThT91oKv9gpDp5vhKBKE7mGJHEGxjm9hGNrCPbB5A2O3l7PVSbEOr2EdWkZoGOHurgl99eJMOrZPX3rtMo0THlbxapKYwH98q4YNrhbR3Ofi3D2/w9sU8qoQGzt0oplXWy9nrZTTI+ilu7sbon6NMoCO7ooOfv3uVn793jRa1lfv1crLuN9GmdpNV0ITaFOBSdhl1Ij1X8ut55+I9zudUIjP4uHS3koJaEQKVg4JaKW99kk/W/VbO3azA7JvldqkQg28Ox+gq9jTW0TWso1vYRx7Qapjk40OCoPIuc73GjGFwHevoOrbRg3nimXrAR7fKUfVHMPpmef1sNk0KC/m1Eu43qrh4p4qObg+lzUre/OQGN4ubqRXpOXMtn7cv3EFrH+Gf3jzPpbvVlAu6ePOTHP75zYuUC5S8fSEfjW0c+8gq2SUCimrEfHKzBJUlwLuXCnnjXA5nruWjNIc4e7OMj26U0Krq41ZxK1fyWmmSW/lv/9//4INbxZS1dNIgMtCiMHPuVhm1oh7euZjH2xdykRhD/OytS4i73WTdb6VZaeWdSwVcL2jhekETclOIapGZZrULx8gm9pGtA3lgG92g07vEh7lCir+LIHhjaHxJhP2L5Ajc9A49OHLvWUc3sY88QO9d4FZZO9llHSh6h8ivFNOssiLp8WFKC8Jvz+VQ3a7lboUQgdpGZZuWdq0P28ga9tF17KPr2EY3sI5u7tI/8oAadYTrVTrUnuipy0FGEJ5PEFIFYZxG7TDZ1V1cLGijWOR4TkFYROKM0qAbPlFBeFZ6dgRBYpvnermCG2VSbpSlG/oJzGTXdlEqtqNw/HAFQeaMUiX3crVYzLUSMTWqAApnFJl9EZnjcSxx+JplBOGUBUEbWtuVg+7gCu3WeW41mOkfXcc6vI51ZIP+fdRLTFy6W0ff0CZ9QxuYfXO0Kvp498Jdiuql/OKdqzSIUzUIOeVC3rucy5mredwpFfC/Xv+ITusQbV0efvabc/z63SvUi/RUtmvJKW9H7x4nt6qDq/fqKGpU0STv5eq9WnJK2sirEKF3TnPhdiVvfniZj24UYgnO8uH1YqzBea7m1VIr7OHSnWqy7tdRXC/nt+duY3RP0x+Y55ObFdSLzXxyqwpTOJqqqRhZ3ccmtpEtWg1Tu4LQE0ygDS6j9CS5Wm1CP7CWmtZ4X370Da/jnNjkTFYFir5RLOEY71wuoLJNQ1ZxE9mVHdwuEdDVP8yH10voDc5i8S+i7h2iXmrkjY9z6Oj28ua5XKzhRS7kVKOyDFDUoKK0Rclvz+dj9C7QF9mitLmbwhoRZ2+WUtKsJL9GTrdtjAt3qskua+U3Z2/ySXYF2aXtnM8ppbixE5N3ll9/cA2tZ46SFi3/898+4qMb99NCUYTSHKZeYiS3RsI/v/kJLQozH1y7z0dZxbQobfQFl6gQaCluUvJRVhnq/jGsw1v0H2ZkA7V38YUEodMTp0k/RYEkRO/wFtaRjQP0jWxhHdmmb3CVotZuyjtMSHqHKGnppKqtm/w6BX2DcXSuKV5/7zpZBc2IdAEK69Q0yW1IzcMH7ucj+x/epN08zQe5QoSWsdS4CxlB+F4LgsQRo9U4ztViCddLxeS1mJ9QPf1DEYQF8lssFAl6uV2lplbppUbu4XyBkDKxHal17gctCPWdYS7kt3G9TEqN0o98t01CRhCeGq9KEPbLQUoQFrjVYKZ3eI2+yBqWQ/M0yMwD/OLMDZTOSbpc09ytFHH9Xh2/PXeLwhohP3/nMnViI5fv1ZFd1sbtUgECjROpaYB/efcaWu80jV1uLtytpUXt4MNblZS3d5NV3IJI7yG7vJ3zd2uoaDfR2uXmQm4t3Y4psitEZJW0cym3hmZFL5bBGNaxJG9fycPoW0htI+zi/N0qruTXcq9OwuvnsuiyjaF1TlDWpuNf3r1GUYsWS2SZ3sgqvZE1eiNrWCJrWCKb9EW2aOqZ4uO7AjqMQ0cEQRdeoTeyeiRP7GNrvH+9GIkhhFDr4ZfvZ1El1HOtoBmta4rcSjHncyp491I+Zt88Bvci714uoKhBzr9+kEV7l4sz14qwR5a4kFOFVO/nboUkVZtw7g51YhM9/hgf3SqjRqTjwxtlFDTIyK2SoTBFOJtVwZ2KDi7n1iLUuOi2j6OxjnHxTh0lTSp+/cE1Ou0zlLX1cK9GSl9oGefIOu9fzUdqCFAnMXG3Wso/v3meZrmZM9fu896Ve9SJLehd83T2DfHrM1f5+GYxfeEEfUOp++IwStciH97t+I6CEEfljdNqniW3zYtxcA1TZDV9bVaxpIdxNkc2MQ0sk9ugQtATQONfoEVj581zt2lS2zCEl2jVuDmXVYK6b4j2bh83itoobOiiwxjBPLSGZXgdy/A6vcPr9A3tYYms09A9xJm7rbToB9LtAjKCcLqCEH9uQRD2zlAi7CentpMW/Ui67cEPTRCWdudZKJd6kfROkV2roVrhprEryPVyBeVSF636sWPNBCl1Jk58oKTnFQSRI0qTfpQSkY2s6k5E1rl91+I4+8gIwqkLgiZwcEY5QX+UG/V9qYl4BtcxDG4cwBSKcbNUyM/fv847Vwq436zmtTNZvHYmi5JWDe9dLaZJaSO7QozEGOK3lwp5P6ucpk4nb18rRuuZRqgPcLtKQo9vlvezypGZB/jVh9m8dbGAe7VKsivE1EgsdPQEyCoVcqNMyM/P3KK0Xc/tKgli0wCWgQS9kQTn7tbys3eucO1+EzJThNvlMu5USqmV9nKvTsk/vXWV7Aopyr4R/vuv30Ntmz4wcqRxcA3D4BqGwU2Mg1vU6ab48I6ANsMQ3YEkXYEV5J5lLlWZ0ARXMA2upicq2kA/uI5+cJ3eyBrncmr4l/eu8sb5XKSmQZpVTvJqlNypkvP6x7mUtHZT1NzF/3jjIjdLhNwu7+A353L5xfs36dD5uJzfiCW0QLXYxP//mwv8+qObVIn6aO/287N3LvGzd65xs7SNHs8k1+83IzUF+fl7N/jXs9lczKtHZgrx5oV7vHE+lwZFHxdy63jtTBbNahs5lSJeP59LhchAtbSf3sE1egfjVIgN/PxMFv96LgdZ7wC/vVJAc5eDC/fqqZaa+MUHWXySW0ePf5ZfnrlJYUMnpvAaxvTcFIfnsFA4l/jgroiiNjO3q2TMR2N7gvDw0a4gqNxx1O44CncclTuOyh1D5Y6i9CYQ2WPcbnGgcK+iH1xGP7icGqNjMIlpYB3TwBpK+wSXi1qpEvXTrg1x7b6Af/s4mzJBN+26EErrJDeK2pAaB+nxzFHc0oPUFKHTOZcaHXPfcNrmwXXMg2tYBtfQhzfIqtZx6X47QuMAKncUhSe+x256T45OTwKlN/YTE4SHaUGYQeJ8/Dv6p9HRv4Cwf55mw8Rew7kfmCDsFJJSRwyRdRGZM0aTfhxh3xxi+xICywzC/nk6rMcrlMWOkxtqeXegpGOJ2D5pccQQmGfosC7QbJx8DjHICML3ThB6BtfoCa+i28dOTwdjOIkhFMM0kMAQSmIILWMMLWMILWMeWMcQWk0VJKE1DOEU+tAqhvAauuBKuufE6u53xtAahuAq+uBK6nNoFWNoFUMafXgNXWA5vZ/Uf+Q9oXV6gmvow6sYgisYQysYQ+uYwhsYQ6k0GIIrGMNrGEMrCHoinLldhSG0Sk9w7QDa0DLa0Bo9oXVquif44AmC0OlfRh9epie8Sk94LZUv6XMwhVfTaVhJpyeVJ8bwzucEpnASYziJeWA5nYcJDKEExnASYyiBcf/v4WUMwXXMAxupdYOrGMPpfAmupvNo7UB+pX5P5X1q/dRy08A6hvAyPaEE+tAK+vRog/p03hoGUtdn53d9eI2e0Grq+3CSnmCct6+VITENYwitow9tpK7d7nFTn2X2Bc7cEX5nQZB5Esi9y9Tqxslrd6MLr6ALJ9GHlzGG1jEGN9PXdgV9MI7GHaWpawCdP4baOc2ZW1U0dPnQhxMUtugQ6AK0dPupUTho0viokDp377ue0Gr6HlrFFFrBEF6jWj3Ah7cbyatTI7HPIXMnDgrCKZARhOcXhJ3ZDaXOVCGS6v74QxOEvXPZSb/UGU9/ju5+fzz5+X4KQqqAjx+ajTIjCMeKVyUIh4eXbeld5Fqthe7gjjQs79IdSNIdSNAdiKc/J+kOLD+B1HJNIElXYJmuQDLN8oGfmt19JA9st39fe+sv0xVM0hVM7BFIpNOUeOy22sAy3YEEKvciQsso2lASTXCZrn2kznMFbWCVKs04Z3JaEegjaPxxOv3LyL3LXK42o/LG0aVfO+y8ktE+luVDrKANrj4Hj9tf8oXoDiXRhJJoQstogivpz09iGU1wNc0KmuAyrcYRNP7YvryO0x2I7aINJpBY559cg/DtI3SeeVpMM08RhHiaJBXqCNmNduTuBN3BZXSBJLrgcpoVdOl82bsOSTTeGJpgkq5gEm0gmV6+x852u/iT6IMraPwrlClCfJjbTlaZmFZtGKU7gdyTfKWCUJ4RhBPk+ykIzxQI5w9ZEF78mmUE4ZQE4ff/+RUFwqcJwsGaBU0gSbc/jtYfQ+ePovMn0PmS6HzL6Hwr+1hOf59C60/S/RS0/uSB9Y/w2O3iB9AdYx9aXwKdfwWtfwVNIElnYGUXTSCBxr+MxrdMRefIEUGQuZNcrDSicEfp9sUOTBOs8SfQ+uKp43hX08eMHSKOzpd4Dpb3fd7J4xcjNYNhnG5/LD3dcYJu3/ITSO6t409/F1hFE1g5xL57I5BE1DfDmRxhqtX1dxKElCRI3QlkniRlqkEulOqoVg+idC3RFYijCcTT1yuZ/rwvDb6URKr9Cbp8STT+lQN0+5fR+vfuyU5vghbTNBfLtXx0t43bFVIa1G4UrigqdwylO3akAD/pVwzqfYJQkRGEjCAcFoRjrpcRhB9ZvApByG93H5mBrrlviSu1FtS+ZTo98QN0PZYEXZ7kE+n0JlE/hU7vk7fd4Wnbq4+z/TP3EUfhi6H0LlPeOcKZnGYE+iG6fEnUvgRSd4LzlUZkrhhd3hga75NG0UukB/t5QbyJx+z3BXnssZ4+6M/zrZOkzTLN+zkCClpMZFfJDwjCN98+Qu9OCYLCE0fpjiN3xVC4YihcURSuJeSu2AFkrhhN+jEul3dxtlDK3Q4XbbYl5J4ECncMtSdKpy+WGqDIF0ftS6D2JVClPyt9CZT+JCpfApU/jsqbKvDF9hilikHOl3TxXnYTlwsF3GvopFkbRuaKHknHaaJ0x5F7olRkBCEjCC9EfLcXw85ASS8r9gRhfxuCJZ6/TUFGEI4dr0QQ2lyPEYRFLtWakfnWkHlXjsHaU5F615A8g5PcXnaM7aXeFcS+ZSTede6rx3j/TgutPZE9QXAlOV9hQexMzSqo8K6izLCLwruKwrtGk2WBt3OE5L80QdgbWraqM8z5EjX/er2Z9wtUXG92cV8eoVY/jdiRQOFZPYLcvYLEmaDJPEdZ5yh32r18XNrNb24089tbjVwoaCW3Rk6tzIHMOoPCnRrW9lUKgsITR+aJUq7wUSXICNfHHl8AAAd8SURBVMLpCsLv+LEJwv6hll9W7AnC/uNlBOFE41UJgtobR+2N7SK0xXj7joRfXao/Jo1P5ZeXGnntKfzyGdv/6hnbv/YStv/1pUZ+ebmeX11q4OeXmjh7r51m7QCdnjhKbxy5O8HVmn5ev9bOLy+28NqlFn5xqSnDPl67VM8vL9by1s0mCltM3K6UPVEQdsTgWYJwRBgcC7QYRshv6+VKuZL37wh5M6uFX11p5LXLjfzmlpC3csS8mS3izWwRv7zWxGtX6nn9eiNv327l47vNXCloIa9WTqlAS1O3D1G6MaLMHUfufrW1BztI3UuUy70/OUHQeaYQOaN0WJcQWRdPFtsiIts8Its8HbYF6rRDzKycgCD8/m/UagYQ2ZaeSod18bl5+vlFEVqjNGn8fPX1Ny9ZEL6hSeVCbE2n37qIyLaAyLpw8tfMvkhtVzAjCKcmCJ6DgqDyxGnuGaKwuYf7TVruN3U/A91TKWzSUfAUCp+x/f2XsP3T0lC4ewwtBc0a7jV3c6+5B6FpLP0+OI7Sk0DpW6Na7uF+k5bCJu1T0/RT5H6TjqKmHgqbDVSIbORUKVlYOq4gxI4lCApXHJUngcIZQ2JbQNQ3SYtugGqFi+L2XnIbtNyp05BT00lOTRf5Td0UNmkpEhiolFhp6ArQYZ5AZptH5Y6jTIuB1B1D5l76HglCjFKpjyqB5ichCA/T4yDYhqJUdYapUoepVodOgSDV6iBV6hAlUhexzT/wsgXhsz9/TZXKS3Vn+CCqEFUneG5VqjDlihAi0yBff/Pwpd4633z7EKkxTI06TLU6TJU6RFU6H08UVZBKlZ9qpYf//e9fw8OX27biex2vShBUnsTjG0y5oj9N3FHU7iXU7ti+/Eig9KRmGTyJYypdURTuF+Ok80XpiqN4JgkU7gQC8zQ5VSqWluK7d9zXD1ONFJvMM0h3q/ETh3jewjS6jyVk6VnhpGlkOzh3SHUV28WVmiBmB9krRupMNdAUuxOUyAJUtGn48m9fvaS/+e8aBwVBcqxW9HEkjsQuAvMCtoGFJz7FPkpPuvP3r/7BH//8H/zlP748Qf7Kn//9b/z53//On/7ytzR/5Y9/+Q++fsmN+QC+fQh/+sv/5Y9//pI//vmvp8of/vQlX/71Hycyp9F//vXv/Okvf+dPf/6vU+cv//4V33zDQXH+sbITr0wQ3E8QhAynhtL94t3jlKeSxsTTcSdRuJMIzDNpQUjs3nGHBSElCS8qCIdeQRwWgB8YjxOE//xBCkLiuQThyBEfPTphnnzMlx0nsc9M/ATjVQlC6skwluEV86KF4/cjfQnk7sSxBeFoIRl9QX74giBxxRG54j9pQTj5eETqJcB+XsUxT5sf4zn92Hm0m9WvSBCSqarhDK+Uo0/Tz8f3Jn3uZVrNs+RUqQ8JAmlBmM0IwjEFoUrQ/T18xXCcUQoPCYJl/jkF4aQLnsxT/anEcavPM/HsOC1B2NnD7//zK/LafCjcy7vDeGZ4hbhekFeexgQSVwKJO0GjaYqbVQpm5hZ2G6Z99RB03nkaLfPI3EmU6TTLnYk0ceTO6AsS+8GjdESRuOKUyINUtnXx5d/+64X/5l8sHu4ThCQS5zISR/IQ8QOIHYkDCCxz2Abmd/9Le8QjHvHwKTw64Ve7zzp+huOR+Xd6/+Drhw+p6DCcoCDs+yv545f/4Fatmeu1Fq5Wm7lSZeRK5QlQ9SPhJPLmh8Qx8uhqlZ6rVT1cLNNwq0LOwlKMh49Sz2xfPQSde57yrgkazUs0mpdoskRpPsDiT55WyyKNlkXutXsob/0+NFJ8yLc8okLhQuRaQuJaQuyIPRWpPYFsH+3maRwDM5n38ZnIxHeNR/CPh5xSDcIj+OYh/PH/fsvQdJLA0DzB4ZNigeDID5zhhRPMnx8TcwSHZwkOzzE0Ps/v/s/v2aks/uYRTC9+xr0aDRfzWjibK+Bcbhuf5LanaeOTXMELcT5PwPm8th82ue18ktvCxbwW2qRa/vb3Vy0Ij/gWqFT4ELmiSFzRAz0/HofkEO2WaRwDs6nnoEd7+/1+NA/PRCZ+GPGPh4+o6jDx5Zf/xePalLykNggP038jmT+STJx8HHjr+xB+98UfmRgdYXB0jJGRSUaHp/YYGX8hxkYmGRv9YTMyMsXIyBhDo9OMjY3xzTf/eLUX8FFKEIo63FTrpqnSzlKlnTvE7CGmd6nUTpOvHKVZF2QytsF07AGTsU8zZMhwLLaZjm0zHfuMsaVtrld2n7QgZMQgE6cXB57Xdn95lBLUV/0Q+X2GfT9fcTx6BCbnMFUiMxWifsqfQYV4j3JxH6UdfVRLe2lRWxF02mntdCDocmbIkOEZtHc6aFdbaVf3067up0Fi4uuv/8Hj/nN4ib0YMpGJTGTi+PHw24d8+80jvvn24TP59uGjAzx8yIFlDx+SapuSIUOGJ/Io/TP1d/RwlydFRhAykYlMnH48OgEykYlMHDMO9h55UmQEIROZyMTpx0kIQoYMGZ5NOvY6O+778lBkBCETmchEJjKRiUwciYwgZCITmchEJjKRiSPx/wCJo+kkdbD+MAAAAABJRU5ErkJggg==&quot; width=&quot;520&quot; height=&quot;187&quot;&gt;&lt;/div&gt;&lt;div&gt;1.在创建了线程池后，等待提交过来的任务请求。&lt;br&gt;2.当调用execute（）方法添加一个请求任务时，线程池会做如下判断：&lt;br&gt;2.1如果正在运行的线程数量小于corePoolSize，那么马上创建线程运行这个任务；2.2如果正在运行的线程数量大于或等于corePoolSize，那么将这个任务放入队列；&lt;br&gt;2.3如果这时候队列满了且正在运行的线程数量还小于maximumPoolSize，那么还是要创建非核心线程立刻运行这个任务；&lt;br&gt;2.4如果队列满了且正在运行的线程数量大于或等于maximumPoolSize，那么线程池会启动饱和拒绝策略来执行。&lt;br&gt;3.当一个线程完成任务时，它会从队列中取下一个任务来执行。&lt;br&gt;4.当一个线程无事可做超过一定的时间（keepAliveTime）时，线程池会判断：&lt;br&gt;如果当前运行的线程数大于corePoolSize，那么这个线程就被停掉。&lt;/div&gt;&lt;div&gt;所以线程池的所有任务完成后它最终会收缩到corePoolSize的大小。&lt;/div&gt;&lt;div&gt;&lt;br&gt;&lt;/div&gt;&lt;div&gt;5.拒绝策略：&lt;/div&gt;&lt;div&gt;jdk内置四大拒绝策略：&lt;/div&gt;&lt;div&gt;AbortPolicy（默认）：直接抛出RejectedExecutionException异常阻止系统正常运行。&lt;br&gt;CallerRunsPolicy:“调用者运行“一种调节机制，该策略既不会抛弃任务，也不会抛出异常，而是将某些任务回退到调用者，从而降低任务流量。&lt;/div&gt;&lt;div&gt;DiscardoidestPolicy：抛弃队列中等待最久的任务，然后把当前任务加入队列中尝试再次提交当前任务。&lt;br&gt;DiscardPolicy：直接丢弃任务，不予任何处理也不抛出异常。如果允许任务丢失，这是最好的一种方案。&lt;/div&gt;&lt;div&gt;&lt;br&gt;&lt;/div&gt;&lt;div&gt;6.线程池：如何合理配置线程数，主要是corePoolSize&lt;/div&gt;&lt;div&gt;1.先查看机器的cpu核心数，线程数：Runtime.getRuntime().availableProcessors();&lt;/div&gt;&lt;div&gt;2.看业务类型：&lt;/div&gt;&lt;div&gt;&amp;nbsp;&amp;nbsp;&amp;nbsp; 1.cpu密集型&lt;/div&gt;&lt;div&gt;&amp;nbsp;&amp;nbsp;&amp;nbsp; cpu密集型是指该任务需要大量运算，而没有阻塞，cpu一直全速运行。&lt;/div&gt;&lt;div&gt;&amp;nbsp;&amp;nbsp;&amp;nbsp; cpu密集任务只有在真正多核cpu上才可以得到加速（通过多线程）&lt;/div&gt;&lt;div&gt;&amp;nbsp;&amp;nbsp;&amp;nbsp; 而在单核cpu，使用多线程还会造成上下文切换&lt;/div&gt;&lt;div&gt;&amp;nbsp;&amp;nbsp;&amp;nbsp; 一般公式：cpu核心数量 + 1&lt;br&gt;&lt;/div&gt;&lt;div&gt;&amp;nbsp;&amp;nbsp;&amp;nbsp; 2.io密集型：&lt;/div&gt;&lt;div&gt;&amp;nbsp;&amp;nbsp;&amp;nbsp;&amp;nbsp;&amp;nbsp;&amp;nbsp;&amp;nbsp; 1.一般：由于io密集任务线程不是一直在执行任务，应配置尽可能多的线程，如，cpu核心数 * 2；&lt;br&gt;&lt;/div&gt;&lt;div&gt;&amp;nbsp;&amp;nbsp;&amp;nbsp;&amp;nbsp;&amp;nbsp;&amp;nbsp;&amp;nbsp; 2.实践得出：io密集型，即该任务需要大量的io，即大量的阻塞。 &lt;br&gt;&lt;/div&gt;&lt;div&gt;&amp;nbsp;&amp;nbsp;&amp;nbsp;&amp;nbsp;&amp;nbsp;&amp;nbsp;&amp;nbsp; 在单线程上运行io密集型的任务会导致浪费大量的cpu运算能力浪费在等待。&lt;/div&gt;&lt;div&gt;&amp;nbsp;&amp;nbsp;&amp;nbsp;&amp;nbsp;&amp;nbsp;&amp;nbsp;&amp;nbsp; 所以在io密集型任务中使用多线程可以大大的加速程序运行，即使在单核cpu上，这种加速主要是利用了被浪费掉的阻塞时间。&lt;/div&gt;&lt;div&gt;&amp;nbsp;&amp;nbsp;&amp;nbsp;&amp;nbsp;&amp;nbsp;&amp;nbsp;&amp;nbsp; io密集型时，大部分线程都阻塞，故需要多配置线程数：&lt;/div&gt;&lt;div&gt;&amp;nbsp;&amp;nbsp;&amp;nbsp;&amp;nbsp;&amp;nbsp;&amp;nbsp;&amp;nbsp; 参考公式：cpu核心数 / (1 - 阻塞系数)&amp;nbsp;&amp;nbsp;&amp;nbsp;&amp;nbsp; 阻塞系数在0.8-0.9之间&lt;/div&gt;&lt;div&gt;&amp;nbsp;&amp;nbsp;&amp;nbsp;&amp;nbsp;&amp;nbsp;&amp;nbsp;&amp;nbsp; 比如，8核心cpu： 8 / （1 - 0.8） = 80&lt;br&gt;&lt;/div&gt;" style="text;html=1;strokeColor=none;fillColor=none;align=left;verticalAlign=middle;whiteSpace=wrap;rounded=0;" parent="1" vertex="1">
          <mxGeometry x="20" y="10" width="780" height="1380" as="geometry" />
        </mxCell>
      </root>
    </mxGraphModel>
  </diagram>
</mxfile>
